<svg width="517" height="362" viewBox="0 0 517 362" fill="none" xmlns="http://www.w3.org/2000/svg">
<path d="M370.627 188.495H334.015V244.631H370.627V188.495Z" fill="#FFE09E"/>
<path d="M372.888 246.894H331.75V186.231H372.888V246.894ZM336.279 242.367H368.363V190.758H336.279V242.367Z" fill="#6C9CD5"/>
<path d="M301.827 181.783H268.878V216.929H301.827V181.783Z" fill="#FFE09E"/>
<path d="M304.091 219.192H266.616V179.519H304.091V219.192ZM271.141 214.665H299.563V184.046H271.141V214.665Z" fill="#6C9CD5"/>
<path d="M438.289 181.783H405.34V216.929H438.289V181.783Z" fill="#FFE09E"/>
<path d="M440.553 219.192H403.078V179.519H440.553V219.192ZM407.603 214.665H436.025V184.046H407.603V214.665Z" fill="#6C9CD5"/>
<path d="M501.699 247.138H2.2633C1.01245 247.138 0 246.124 0 244.875C0 243.625 1.01245 242.611 2.2633 242.611H501.699C502.95 242.611 503.962 243.625 503.962 244.875C503.962 246.124 502.948 247.138 501.699 247.138Z" fill="#6C9CD5"/>
<path d="M91.5371 320.568H201.182C243.43 320.568 225.324 287.373 257.513 287.373C289.701 287.373 304.54 287.373 304.54 287.373" fill="white"/>
<path d="M201.182 322.832H91.5372C90.2864 322.832 89.2739 321.818 89.2739 320.569C89.2739 319.319 90.2864 318.305 91.5372 318.305H201.182C222.42 318.305 227.127 309.981 232.109 301.171C236.574 293.276 241.191 285.11 257.513 285.11H304.54C305.791 285.11 306.803 286.124 306.803 287.373C306.803 288.623 305.791 289.637 304.54 289.637H257.513C243.83 289.637 240.396 295.708 236.049 303.398C230.899 312.507 225.06 322.832 201.182 322.832Z" fill="#6C9CD5"/>
<path d="M391.3 358.959H365.14C329.474 358.959 344.759 331.132 317.584 331.132C290.409 331.132 277.883 331.132 277.883 331.132" fill="white"/>
<path d="M391.3 361.22H365.14C344.78 361.22 339.797 352.469 335.401 344.75C331.787 338.405 328.933 333.394 317.584 333.394H277.882C276.632 333.394 275.619 332.38 275.619 331.131C275.619 329.881 276.632 328.867 277.882 328.867H317.584C331.565 328.867 335.514 335.804 339.334 342.509C343.488 349.804 347.413 356.694 365.142 356.694H391.3C392.55 356.694 393.563 357.708 393.563 358.957C393.563 360.207 392.55 361.22 391.3 361.22Z" fill="#6C9CD5"/>
<path d="M165.455 218.991H160.928V243.047H165.455V218.991Z" fill="#6C9CD5"/>
<path d="M413.178 202.325C411.927 202.325 410.915 201.311 410.915 200.061V191.763C410.915 190.432 411.054 189.069 412.056 188.11C413.118 187.091 414.421 187.152 415.686 187.203C416.042 187.219 416.449 187.236 416.913 187.236C418.163 187.236 419.176 188.25 419.176 189.499C419.176 190.749 418.163 191.763 416.913 191.763C416.374 191.763 415.902 191.742 415.488 191.725C415.473 191.725 415.456 191.723 415.441 191.723C415.441 191.735 415.441 191.749 415.441 191.761V200.06C415.441 201.311 414.429 202.325 413.178 202.325Z" fill="white"/>
<path d="M340.753 207.606C339.502 207.606 338.489 206.592 338.489 205.342V197.044C338.489 195.713 338.628 194.35 339.63 193.391C340.692 192.372 341.996 192.431 343.26 192.484C343.616 192.5 344.024 192.517 344.487 192.517C345.738 192.517 346.75 193.531 346.75 194.78C346.75 196.03 345.738 197.044 344.487 197.044C343.948 197.044 343.476 197.022 343.063 197.006C343.048 197.006 343.031 197.004 343.016 197.004C343.016 197.016 343.016 197.03 343.016 197.042V205.341C343.016 206.592 342.003 207.606 340.753 207.606Z" fill="white"/>
<path d="M276.576 202.325C275.325 202.325 274.312 201.311 274.312 200.061V191.763C274.312 190.432 274.451 189.069 275.453 188.11C276.515 187.091 277.821 187.152 279.084 187.203C279.44 187.219 279.847 187.236 280.31 187.236C281.561 187.236 282.574 188.25 282.574 189.499C282.574 190.749 281.561 191.763 280.31 191.763C279.772 191.763 279.299 191.742 278.886 191.725C278.871 191.725 278.854 191.723 278.839 191.723C278.839 191.735 278.839 191.749 278.839 191.761V200.06C278.839 201.311 277.825 202.325 276.576 202.325Z" fill="white"/>
<path d="M513.829 227.87C513.787 227.87 513.743 227.868 513.702 227.867L495.804 226.86C495.117 226.821 494.485 226.472 494.087 225.913L354.836 30.2532L215.584 225.913C215.186 226.472 214.554 226.821 213.867 226.86L195.969 227.867C195.123 227.894 194.282 227.462 193.861 226.7C193.442 225.938 193.494 225.003 193.998 224.294L352.992 0.895136C353.842 -0.298379 355.832 -0.298379 356.68 0.895136L515.673 224.294C516.177 225.003 516.231 225.938 515.81 226.7C515.41 227.426 514.65 227.87 513.829 227.87ZM497.144 222.402L509.254 223.082L354.836 6.1113L200.417 223.084L212.527 222.403L352.992 25.0386C353.842 23.845 355.832 23.845 356.68 25.0386L497.144 222.402Z" fill="#6C9CD5"/>
<path d="M184.305 222.272C184.295 222.27 184.286 222.27 184.275 222.272H142.108C141.286 222.272 140.529 221.825 140.129 221.107C139.73 220.387 139.753 219.508 140.189 218.81L151.551 200.615H142.11C141.288 200.615 140.53 200.168 140.13 199.45C139.732 198.73 139.755 197.851 140.191 197.154L161.274 163.39C161.687 162.729 162.413 162.326 163.193 162.326C163.973 162.326 164.699 162.729 165.113 163.39L186.196 197.154C186.632 197.852 186.655 198.732 186.256 199.45C185.856 200.17 185.099 200.615 184.277 200.615H174.836L186.025 218.536C186.365 218.933 186.57 219.447 186.57 220.01C186.569 221.258 185.556 222.272 184.305 222.272ZM146.19 217.745H180.194L168.833 199.548C168.397 198.851 168.375 197.972 168.773 197.253C169.173 196.534 169.93 196.088 170.753 196.088H180.194L163.192 168.861L146.19 196.088H155.631C156.453 196.088 157.211 196.535 157.61 197.253C158.009 197.973 157.986 198.853 157.55 199.55L146.19 217.745Z" fill="#6C9CD5"/>
<path d="M401.091 310.53H396.564V334.584H401.091V310.53Z" fill="#6C9CD5"/>
<path d="M419.941 313.809C419.93 313.809 419.92 313.809 419.911 313.809H377.744C376.921 313.809 376.164 313.362 375.764 312.644C375.366 311.924 375.388 311.045 375.825 310.348L387.185 292.154H377.744C376.921 292.154 376.164 291.707 375.764 290.989C375.366 290.269 375.388 289.389 375.825 288.692L396.908 254.927C397.321 254.266 398.047 253.863 398.827 253.863C399.607 253.863 400.333 254.266 400.747 254.927L421.83 288.692C422.266 289.391 422.289 290.271 421.89 290.989C421.49 291.709 420.733 292.154 419.911 292.154H410.47L421.659 310.073C421.999 310.47 422.204 310.984 422.204 311.547C422.204 312.795 421.192 313.809 419.941 313.809ZM381.825 309.282H415.829L404.467 291.088C404.031 290.39 404.009 289.51 404.407 288.792C404.807 288.072 405.564 287.627 406.387 287.627H415.828L398.826 260.398L381.825 287.626H391.266C392.089 287.626 392.846 288.072 393.246 288.79C393.644 289.51 393.622 290.39 393.186 291.087L381.825 309.282Z" fill="#6C9CD5"/>
<path d="M56.8164 209.825H52.2898V243.616H56.8164V209.825Z" fill="#6C9CD5"/>
<path d="M84.2012 213.517C84.1907 213.516 84.1801 213.516 84.1711 213.517H24.9389C24.1166 213.517 23.3591 213.071 22.9593 212.352C22.5609 211.633 22.5836 210.753 23.0196 210.056L39.8541 183.097H24.9404C24.1181 183.097 23.3606 182.65 22.9608 181.932C22.5625 181.212 22.5851 180.333 23.0211 179.636L52.6372 132.206C53.0506 131.545 53.7764 131.142 54.5565 131.142C55.3366 131.142 56.0623 131.545 56.4758 132.206L86.0918 179.636C86.5279 180.334 86.5506 181.214 86.1522 181.932C85.7524 182.652 84.9949 183.097 84.1726 183.097H69.2589L85.9213 209.783C86.2608 210.18 86.466 210.694 86.466 211.257C86.4645 212.503 85.4506 213.517 84.2012 213.517ZM29.0189 208.991H80.0881L63.2536 182.032C62.8175 181.333 62.7949 180.453 63.1933 179.735C63.5931 179.015 64.3506 178.57 65.1729 178.57H80.0866L54.552 137.677L29.0174 178.57H43.931C44.7534 178.57 45.5108 179.017 45.9107 179.735C46.309 180.455 46.2864 181.335 45.8503 182.032L29.0189 208.991Z" fill="#6C9CD5"/>
<path d="M196.701 103.002H192.174V121.332H196.701V103.002Z" fill="#6C9CD5"/>
<path d="M211.074 106.039C211.065 106.039 211.055 106.039 211.044 106.039H177.831C177.003 106.039 176.239 105.587 175.844 104.859C175.447 104.132 175.48 103.245 175.93 102.549L184.328 89.5383H177.831C177.003 89.5383 176.239 89.0856 175.844 88.3584C175.447 87.6311 175.48 86.7439 175.93 86.0483L192.536 60.3206C193.371 59.029 195.506 59.029 196.34 60.3206L212.947 86.0483C213.397 86.7439 213.43 87.6311 213.033 88.3584C212.636 89.0856 211.874 89.5383 211.046 89.5383H204.549L212.772 102.279C213.125 102.679 213.338 103.203 213.338 103.777C213.338 105.027 212.324 106.039 211.074 106.039ZM181.985 101.513H206.889L198.49 88.5017C198.041 87.8061 198.008 86.9189 198.404 86.1916C198.801 85.4643 199.563 85.0117 200.392 85.0117H206.889L194.438 65.7208L181.986 85.0117H188.484C189.312 85.0117 190.076 85.4643 190.471 86.1916C190.868 86.9189 190.834 87.8061 190.385 88.5017L181.985 101.513Z" fill="#6C9CD5"/>
<path d="M351.754 102.789L330.583 137.529H374.059L351.754 102.789Z" fill="#FFE09E"/>
<path d="M374.059 139.791H330.583C329.765 139.791 329.011 139.349 328.609 138.635C328.208 137.921 328.224 137.048 328.65 136.349L349.821 101.609C350.227 100.944 350.946 100.533 351.727 100.524C352.528 100.56 353.237 100.909 353.658 101.564L375.963 136.302C376.41 136.999 376.442 137.884 376.045 138.609C375.648 139.335 374.886 139.791 374.059 139.791ZM334.613 135.264H369.916L351.804 107.056L334.613 135.264Z" fill="#6C9CD5"/>
<path d="M230.102 245.88C228.852 245.88 227.839 244.866 227.839 243.616V203.381C227.839 202.131 228.852 201.117 230.102 201.117C231.353 201.117 232.366 202.131 232.366 203.381V243.616C232.366 244.866 231.352 245.88 230.102 245.88Z" fill="#6C9CD5"/>
<path d="M481.58 245.88C480.329 245.88 479.316 244.866 479.316 243.616V203.381C479.316 202.131 480.329 201.117 481.58 201.117C482.831 201.117 483.843 202.131 483.843 203.381V243.616C483.843 244.866 482.831 245.88 481.58 245.88Z" fill="#6C9CD5"/>
<path d="M90.6471 161.001C84.177 161.001 77.443 160.307 70.2502 158.832C69.025 158.58 68.2373 157.383 68.4893 156.159C68.7413 154.934 69.9378 154.151 71.1615 154.397C106.054 161.564 129.353 149.655 164.47 129.633C196.541 111.344 228.103 120.348 248.988 126.302C254.718 127.936 259.668 129.348 263.179 129.71C264.422 129.839 265.326 130.951 265.197 132.194C265.068 133.437 263.954 134.331 262.714 134.213C258.809 133.808 253.683 132.348 247.749 130.655C227.593 124.909 197.132 116.226 166.715 133.566C137.82 150.035 116.348 161 90.6471 161.001Z" fill="#6C9CD5"/>
</svg>
