<svg width="549" height="466" viewBox="0 0 549 466" fill="none" xmlns="http://www.w3.org/2000/svg">
<path d="M300.329 25.4775V2.46552H128.21V24.82" fill="#FFE09E"/>
<path d="M300.329 27.9432C298.968 27.9432 297.864 26.8402 297.864 25.4776V4.93118H130.675V24.8201C130.675 26.1827 129.572 27.2857 128.21 27.2857C126.847 27.2857 125.744 26.1827 125.744 24.8201V2.46561C125.744 1.10297 126.847 3.8147e-05 128.21 3.8147e-05H300.328C301.689 3.8147e-05 302.793 1.10297 302.793 2.46561V25.4776C302.795 26.8402 301.69 27.9432 300.329 27.9432Z" fill="#6C9CD5"/>
<path d="M120.813 343.7V33.0386C120.813 28.5003 124.493 24.82 129.031 24.82H299.978C304.516 24.82 308.196 28.5003 308.196 33.0386V343.7" fill="white"/>
<path d="M310.662 343.7H305.731V33.0386C305.731 29.8662 303.15 27.2856 299.978 27.2856H129.031C125.859 27.2856 123.278 29.8662 123.278 33.0386V343.7H118.347V33.0386C118.347 27.1475 123.14 22.3545 129.031 22.3545H299.978C305.869 22.3545 310.662 27.1475 310.662 33.0386V343.7Z" fill="#6C9CD5"/>
<path d="M546.534 347.645H2.46557C1.10293 347.645 0 346.541 0 345.18C0 343.819 1.10293 342.714 2.46557 342.714H546.534C547.895 342.714 549 343.819 549 345.18C549 346.541 547.895 347.645 546.534 347.645Z" fill="#6C9CD5"/>
<path d="M89.5823 403.257H209.026C255.05 403.257 235.325 367.095 270.391 367.095C305.456 367.095 360.247 367.095 360.247 367.095" fill="white"/>
<path d="M209.026 405.723H89.5823C88.2196 405.723 87.1167 404.618 87.1167 403.257C87.1167 401.896 88.2196 400.791 89.5823 400.791H209.026C232.161 400.791 237.29 391.723 242.717 382.125C247.581 373.525 252.611 364.63 270.391 364.63H360.247C361.608 364.63 362.713 365.734 362.713 367.095C362.713 368.456 361.608 369.561 360.247 369.561H270.391C255.485 369.561 251.744 376.175 247.009 384.551C241.399 394.475 235.038 405.723 209.026 405.723Z" fill="#6C9CD5"/>
<path d="M442.203 442.706C396.584 442.706 416.134 406.545 381.376 406.545C346.618 406.545 324.086 406.545 324.086 406.545" fill="white"/>
<path d="M442.201 445.172C416.4 445.172 410.093 433.919 404.528 423.992C399.836 415.621 396.13 409.01 381.374 409.01H324.086C322.725 409.01 321.62 407.905 321.62 406.544C321.62 405.183 322.725 404.079 324.086 404.079H381.376C399.02 404.079 404.008 412.976 408.831 421.581C414.209 431.177 419.288 440.241 442.203 440.241C443.564 440.241 444.669 441.345 444.669 442.706C444.669 444.067 443.564 445.172 442.201 445.172Z" fill="#6C9CD5"/>
<path d="M175.535 50.4012H140.615C139.252 50.4012 138.149 49.2982 138.149 47.9356C138.149 46.573 139.252 45.47 140.615 45.47H175.537C176.9 45.47 178.002 46.573 178.002 47.9356C178.002 49.2982 176.898 50.4012 175.535 50.4012Z" fill="#6C9CD5"/>
<path d="M175.535 78.8934H140.615C139.252 78.8934 138.149 77.7905 138.149 76.4278C138.149 75.0652 139.252 73.9623 140.615 73.9623H175.537C176.9 73.9623 178.002 75.0652 178.002 76.4278C178.002 77.7905 176.898 78.8934 175.535 78.8934Z" fill="#6C9CD5"/>
<path d="M175.535 107.384H140.615C139.252 107.384 138.149 106.281 138.149 104.918C138.149 103.556 139.252 102.453 140.615 102.453H175.537C176.9 102.453 178.002 103.556 178.002 104.918C178.002 106.281 176.898 107.384 175.535 107.384Z" fill="#6C9CD5"/>
<path d="M175.535 135.874H140.615C139.252 135.874 138.149 134.771 138.149 133.409C138.149 132.046 139.252 130.943 140.615 130.943H175.537C176.9 130.943 178.002 132.046 178.002 133.409C178.002 134.771 176.898 135.874 175.535 135.874Z" fill="#6C9CD5"/>
<path d="M175.535 164.366H140.615C139.252 164.366 138.149 163.263 138.149 161.901C138.149 160.538 139.252 159.435 140.615 159.435H175.537C176.9 159.435 178.002 160.538 178.002 161.901C178.002 163.263 176.898 164.366 175.535 164.366Z" fill="#6C9CD5"/>
<path d="M175.535 192.857H140.615C139.252 192.857 138.149 191.754 138.149 190.391C138.149 189.029 139.252 187.926 140.615 187.926H175.537C176.9 187.926 178.002 189.029 178.002 190.391C178.002 191.754 176.898 192.857 175.535 192.857Z" fill="#6C9CD5"/>
<path d="M232.445 50.4012H197.525C196.162 50.4012 195.059 49.2982 195.059 47.9356C195.059 46.573 196.162 45.47 197.525 45.47H232.445C233.808 45.47 234.911 46.573 234.911 47.9356C234.911 49.2982 233.806 50.4012 232.445 50.4012Z" fill="#6C9CD5"/>
<path d="M232.445 78.8934H197.525C196.162 78.8934 195.059 77.7905 195.059 76.4278C195.059 75.0652 196.162 73.9623 197.525 73.9623H232.445C233.808 73.9623 234.911 75.0652 234.911 76.4278C234.911 77.7905 233.806 78.8934 232.445 78.8934Z" fill="#6C9CD5"/>
<path d="M232.445 107.384H197.525C196.162 107.384 195.059 106.281 195.059 104.918C195.059 103.556 196.162 102.453 197.525 102.453H232.445C233.808 102.453 234.911 103.556 234.911 104.918C234.911 106.281 233.806 107.384 232.445 107.384Z" fill="#6C9CD5"/>
<path d="M232.445 135.874H197.525C196.162 135.874 195.059 134.771 195.059 133.409C195.059 132.046 196.162 130.943 197.525 130.943H232.445C233.808 130.943 234.911 132.046 234.911 133.409C234.911 134.771 233.806 135.874 232.445 135.874Z" fill="#6C9CD5"/>
<path d="M232.445 164.366H197.525C196.162 164.366 195.059 163.263 195.059 161.901C195.059 160.538 196.162 159.435 197.525 159.435H232.445C233.808 159.435 234.911 160.538 234.911 161.901C234.911 163.263 233.806 164.366 232.445 164.366Z" fill="#6C9CD5"/>
<path d="M232.445 192.857H197.525C196.162 192.857 195.059 191.754 195.059 190.391C195.059 189.029 196.162 187.926 197.525 187.926H232.445C233.808 187.926 234.911 189.029 234.911 190.391C234.911 191.754 233.806 192.857 232.445 192.857Z" fill="#6C9CD5"/>
<path d="M289.057 50.4012H254.136C252.773 50.4012 251.67 49.2982 251.67 47.9356C251.67 46.573 252.773 45.47 254.136 45.47H289.057C290.418 45.47 291.522 46.573 291.522 47.9356C291.522 49.2982 290.419 50.4012 289.057 50.4012Z" fill="#6C9CD5"/>
<path d="M289.057 78.8934H254.136C252.773 78.8934 251.67 77.7905 251.67 76.4278C251.67 75.0652 252.773 73.9623 254.136 73.9623H289.057C290.418 73.9623 291.522 75.0652 291.522 76.4278C291.522 77.7905 290.419 78.8934 289.057 78.8934Z" fill="#6C9CD5"/>
<path d="M289.057 107.384H254.136C252.773 107.384 251.67 106.281 251.67 104.918C251.67 103.556 252.773 102.453 254.136 102.453H289.057C290.418 102.453 291.522 103.556 291.522 104.918C291.522 106.281 290.419 107.384 289.057 107.384Z" fill="#6C9CD5"/>
<path d="M289.057 135.874H254.136C252.773 135.874 251.67 134.771 251.67 133.409C251.67 132.046 252.773 130.943 254.136 130.943H289.057C290.418 130.943 291.522 132.046 291.522 133.409C291.522 134.771 290.419 135.874 289.057 135.874Z" fill="#6C9CD5"/>
<path d="M289.057 164.366H254.136C252.773 164.366 251.67 163.263 251.67 161.901C251.67 160.538 252.773 159.435 254.136 159.435H289.057C290.418 159.435 291.522 160.538 291.522 161.901C291.522 163.263 290.419 164.366 289.057 164.366Z" fill="#6C9CD5"/>
<path d="M289.057 192.857H254.136C252.773 192.857 251.67 191.754 251.67 190.391C251.67 189.029 252.773 187.926 254.136 187.926H289.057C290.418 187.926 291.522 189.029 291.522 190.391C291.522 191.754 290.419 192.857 289.057 192.857Z" fill="#6C9CD5"/>
<path d="M175.535 221.655H140.615C139.252 221.655 138.149 220.55 138.149 219.189C138.149 217.828 139.252 216.724 140.615 216.724H175.537C176.9 216.724 178.002 217.828 178.002 219.189C178.002 220.55 176.898 221.655 175.535 221.655Z" fill="#6C9CD5"/>
<path d="M175.535 250.145H140.615C139.252 250.145 138.149 249.04 138.149 247.679C138.149 246.318 139.252 245.214 140.615 245.214H175.537C176.9 245.214 178.002 246.318 178.002 247.679C178.002 249.04 176.898 250.145 175.535 250.145Z" fill="#6C9CD5"/>
<path d="M175.535 278.637H140.615C139.252 278.637 138.149 277.533 138.149 276.172C138.149 274.811 139.252 273.706 140.615 273.706H175.537C176.9 273.706 178.002 274.811 178.002 276.172C178.002 277.533 176.898 278.637 175.535 278.637Z" fill="#6C9CD5"/>
<path d="M232.445 221.655H197.525C196.162 221.655 195.059 220.55 195.059 219.189C195.059 217.828 196.162 216.724 197.525 216.724H232.445C233.808 216.724 234.911 217.828 234.911 219.189C234.911 220.55 233.806 221.655 232.445 221.655Z" fill="#6C9CD5"/>
<path d="M232.445 250.145H197.525C196.162 250.145 195.059 249.04 195.059 247.679C195.059 246.318 196.162 245.214 197.525 245.214H232.445C233.808 245.214 234.911 246.318 234.911 247.679C234.911 249.04 233.806 250.145 232.445 250.145Z" fill="#6C9CD5"/>
<path d="M232.445 278.637H197.525C196.162 278.637 195.059 277.533 195.059 276.172C195.059 274.811 196.162 273.706 197.525 273.706H232.445C233.808 273.706 234.911 274.811 234.911 276.172C234.911 277.533 233.806 278.637 232.445 278.637Z" fill="#6C9CD5"/>
<path d="M289.057 221.655H254.136C252.773 221.655 251.67 220.55 251.67 219.189C251.67 217.828 252.773 216.724 254.136 216.724H289.057C290.418 216.724 291.522 217.828 291.522 219.189C291.522 220.55 290.419 221.655 289.057 221.655Z" fill="#6C9CD5"/>
<path d="M289.057 250.145H254.136C252.773 250.145 251.67 249.04 251.67 247.679C251.67 246.318 252.773 245.214 254.136 245.214H289.057C290.418 245.214 291.522 246.318 291.522 247.679C291.522 249.04 290.419 250.145 289.057 250.145Z" fill="#6C9CD5"/>
<path d="M288.263 298.702C288.263 314.713 278.239 321.951 265.875 321.951C253.511 321.951 243.486 314.712 243.486 298.702C243.486 282.691 253.51 265.836 265.875 265.836C278.239 265.836 288.263 282.692 288.263 298.702Z" fill="#C3E8FC"/>
<path d="M265.874 324.418C250.543 324.418 241.019 314.564 241.019 298.702C241.019 282.025 251.647 263.37 265.874 263.37C280.1 263.37 290.728 282.025 290.728 298.702C290.728 314.564 281.205 324.418 265.874 324.418ZM265.874 268.301C255.633 268.301 245.95 283.075 245.95 298.702C245.95 311.717 253.398 319.487 265.874 319.487C278.349 319.487 285.797 311.717 285.797 298.702C285.797 283.077 276.114 268.301 265.874 268.301Z" fill="#6C9CD5"/>
<path d="M268.339 322.11H263.408V345.18H268.339V322.11Z" fill="#6C9CD5"/>
<path d="M521.389 306.128C521.389 319.492 513.023 325.534 502.702 325.534C492.381 325.534 484.014 319.492 484.014 306.128C484.014 292.765 492.381 286.828 502.702 286.828C513.023 286.828 521.389 292.765 521.389 306.128Z" fill="#C3E8FC"/>
<path d="M502.703 327.999C489.655 327.999 481.55 319.618 481.55 306.128C481.55 292.702 489.657 284.362 502.703 284.362C515.749 284.362 523.855 292.702 523.855 306.128C523.855 319.618 515.749 327.999 502.703 327.999ZM502.703 289.293C497.825 289.293 486.481 290.934 486.481 306.128C486.481 321.418 497.825 323.068 502.703 323.068C507.58 323.068 518.923 321.418 518.923 306.128C518.923 290.934 507.58 289.293 502.703 289.293Z" fill="#6C9CD5"/>
<path d="M505.169 326.277H500.238V345.18H505.169V326.277Z" fill="#6C9CD5"/>
<path d="M84.8714 302.225C84.8714 314.137 77.4139 319.523 68.2141 319.523C59.0142 319.523 51.5566 314.137 51.5566 302.225C51.5566 290.313 59.0142 282.078 68.2141 282.078C77.4139 282.078 84.8714 290.311 84.8714 302.225Z" fill="#C3E8FC"/>
<path d="M68.2141 321.989C56.4188 321.989 49.0911 314.416 49.0911 302.225C49.0911 289.333 57.3113 279.612 68.2141 279.612C79.1152 279.612 87.337 289.333 87.337 302.225C87.337 314.415 80.0094 321.989 68.2141 321.989ZM68.2141 284.542C60.1237 284.542 54.0222 292.142 54.0222 302.223C54.0222 315.613 63.947 317.056 68.2141 317.056C72.4811 317.056 82.4058 315.611 82.4058 302.223C82.4058 292.142 76.3044 284.542 68.2141 284.542Z" fill="#6C9CD5"/>
<path d="M70.6797 318.975H65.7485V345.18H70.6797V318.975Z" fill="#6C9CD5"/>
<path d="M276.966 343.536V120.183C276.966 116.017 280.343 112.637 284.512 112.637H441.462C445.629 112.637 449.008 116.015 449.008 120.183V343.536" fill="white"/>
<path d="M451.474 343.536H446.542V120.183C446.542 117.382 444.263 115.103 441.462 115.103H284.512C281.711 115.103 279.431 117.382 279.431 120.183V343.536H274.5V120.183C274.5 114.664 278.991 110.171 284.512 110.171H441.462C446.981 110.171 451.474 114.662 451.474 120.183V343.536Z" fill="#6C9CD5"/>
<path d="M331.428 164.426C331.428 167.149 329.221 169.357 326.497 169.357H296.91C294.187 169.357 291.979 167.149 291.979 164.426V134.839C291.979 132.115 294.187 129.908 296.91 129.908H326.497C329.221 129.908 331.428 132.115 331.428 134.839V164.426Z" fill="#FFE09E"/>
<path d="M326.497 171.822H296.91C292.832 171.822 289.514 168.504 289.514 164.426V134.839C289.514 130.761 292.832 127.442 296.91 127.442H326.497C330.575 127.442 333.894 130.761 333.894 134.839V164.426C333.894 168.505 330.575 171.822 326.497 171.822ZM296.91 132.373C295.551 132.373 294.445 133.479 294.445 134.839V164.426C294.445 165.785 295.551 166.891 296.91 166.891H326.497C327.857 166.891 328.963 165.785 328.963 164.426V134.839C328.963 133.479 327.857 132.373 326.497 132.373H296.91Z" fill="#6C9CD5"/>
<path d="M369.318 343.426V298.383C369.318 294.238 372.679 290.876 376.824 290.876H401.848C405.994 290.876 409.355 294.238 409.355 298.383V343.426" fill="#FFE09E"/>
<path d="M411.821 343.428H406.89V298.383C406.89 295.606 404.628 293.344 401.848 293.344H376.824C374.045 293.344 371.783 295.606 371.783 298.383V343.426H366.852V298.383C366.852 292.885 371.326 288.413 376.824 288.413H401.848C407.348 288.413 411.821 292.887 411.821 298.383V343.428Z" fill="#6C9CD5"/>
<path d="M298.225 150.456C296.864 150.456 295.76 149.353 295.76 147.99V138.95C295.76 137.5 295.911 136.016 297.002 134.97C298.161 133.864 299.575 133.925 300.955 133.984C301.342 134 301.787 134.02 302.292 134.02C303.653 134.02 304.757 135.123 304.757 136.486C304.757 137.848 303.653 138.951 302.292 138.951C301.705 138.951 301.189 138.93 300.74 138.91C300.724 138.91 300.706 138.909 300.691 138.909C300.691 138.922 300.691 138.937 300.691 138.95V147.99C300.691 149.351 299.586 150.456 298.225 150.456Z" fill="white"/>
<path d="M331.428 224.696C331.428 227.419 329.221 229.627 326.497 229.627H296.91C294.187 229.627 291.979 227.419 291.979 224.696V195.109C291.979 192.385 294.187 190.178 296.91 190.178H326.497C329.221 190.178 331.428 192.385 331.428 195.109V224.696Z" fill="#FFE09E"/>
<path d="M326.497 232.092H296.91C292.832 232.092 289.514 228.774 289.514 224.696V195.109C289.514 191.031 292.832 187.712 296.91 187.712H326.497C330.575 187.712 333.894 191.031 333.894 195.109V224.696C333.894 228.775 330.575 232.092 326.497 232.092ZM296.91 192.643C295.551 192.643 294.445 193.749 294.445 195.109V224.696C294.445 226.055 295.551 227.161 296.91 227.161H326.497C327.857 227.161 328.963 226.055 328.963 224.696V195.109C328.963 193.749 327.857 192.643 326.497 192.643H296.91Z" fill="#6C9CD5"/>
<path d="M298.225 210.724C296.864 210.724 295.76 209.62 295.76 208.259V199.218C295.76 197.768 295.911 196.282 297.002 195.239C298.161 194.131 299.581 194.195 300.955 194.252C301.342 194.269 301.787 194.289 302.292 194.289C303.653 194.289 304.757 195.392 304.757 196.754C304.757 198.117 303.653 199.22 302.292 199.22C301.705 199.22 301.189 199.198 300.74 199.179C300.724 199.179 300.706 199.177 300.691 199.177C300.691 199.19 300.691 199.205 300.691 199.218V208.259C300.691 209.62 299.586 210.724 298.225 210.724Z" fill="white"/>
<path d="M331.428 287.156C331.428 289.88 329.221 292.088 326.497 292.088H296.91C294.187 292.088 291.979 289.88 291.979 287.156V257.57C291.979 254.846 294.187 252.639 296.91 252.639H326.497C329.221 252.639 331.428 254.846 331.428 257.57V287.156Z" fill="#FFE09E"/>
<path d="M326.497 294.553H296.91C292.832 294.553 289.514 291.234 289.514 287.156V257.57C289.514 253.492 292.832 250.173 296.91 250.173H326.497C330.575 250.173 333.894 253.492 333.894 257.57V287.156C333.894 291.236 330.575 294.553 326.497 294.553ZM296.91 255.104C295.551 255.104 294.445 256.21 294.445 257.57V287.156C294.445 288.516 295.551 289.622 296.91 289.622H326.497C327.857 289.622 328.963 288.516 328.963 287.156V257.57C328.963 256.21 327.857 255.104 326.497 255.104H296.91Z" fill="#6C9CD5"/>
<path d="M298.225 273.185C296.864 273.185 295.76 272.081 295.76 270.72V261.679C295.76 260.229 295.911 258.745 297.002 257.7C298.158 256.59 299.585 256.651 300.954 256.714C301.342 256.732 301.786 256.75 302.292 256.75C303.653 256.75 304.757 257.854 304.757 259.215C304.757 260.576 303.653 261.681 302.292 261.681C301.705 261.681 301.187 261.658 300.739 261.64C300.722 261.64 300.706 261.638 300.691 261.638C300.691 261.651 300.691 261.664 300.691 261.677V270.718C300.691 272.081 299.586 273.185 298.225 273.185Z" fill="white"/>
<path d="M376.607 312.787C375.246 312.787 374.142 311.682 374.142 310.321V301.281C374.142 299.831 374.293 298.347 375.384 297.302C376.543 296.192 377.965 296.258 379.338 296.314C379.726 296.332 380.169 296.35 380.674 296.35C382.035 296.35 383.14 297.454 383.14 298.815C383.14 300.176 382.035 301.281 380.674 301.281C380.087 301.281 379.573 301.258 379.124 301.24C379.106 301.24 379.089 301.238 379.073 301.238C379.073 301.251 379.073 301.266 379.073 301.279V310.32C379.073 311.682 377.968 312.787 376.607 312.787Z" fill="white"/>
<path d="M199.233 343.426V298.383C199.233 294.238 195.871 290.876 191.726 290.876H166.702V343.48" fill="#FFE09E"/>
<path d="M169.168 343.482H164.236V288.413H191.726C197.224 288.413 201.698 292.887 201.698 298.383V343.426H196.767V298.383C196.767 295.606 194.505 293.344 191.726 293.344H169.168V343.482Z" fill="#6C9CD5"/>
<path d="M134.267 343.426V298.383C134.267 294.238 137.628 290.876 141.773 290.876H166.797V343.426" fill="#FFE09E"/>
<path d="M169.263 343.428H164.332V293.344H141.774C138.994 293.344 136.732 295.606 136.732 298.383V343.426H131.801V298.383C131.801 292.885 136.275 288.413 141.774 288.413H169.263V343.428Z" fill="#6C9CD5"/>
<path d="M141.634 312.787C140.271 312.787 139.168 311.682 139.168 310.321V301.281C139.168 299.831 139.319 298.347 140.411 297.302C141.568 296.192 142.991 296.256 144.366 296.314C144.754 296.332 145.197 296.35 145.702 296.35C147.065 296.35 148.167 297.454 148.167 298.815C148.167 300.176 147.065 301.281 145.702 301.281C145.115 301.281 144.601 301.258 144.15 301.24C144.134 301.24 144.116 301.238 144.099 301.238C144.099 301.251 144.099 301.266 144.099 301.279V310.32C144.099 311.682 142.996 312.787 141.634 312.787Z" fill="white"/>
<path d="M190.766 312.787C189.403 312.787 188.3 311.683 188.3 310.322V301.281C188.3 301.276 188.3 301.27 188.3 301.265C188.06 301.275 187.802 301.283 187.524 301.283C186.162 301.283 185.059 300.178 185.059 298.817C185.059 297.456 186.162 296.352 187.524 296.352C187.909 296.352 188.246 296.332 188.54 296.317C189.6 296.256 190.917 296.187 192.012 297.223C193.138 298.288 193.231 299.812 193.231 301.283V310.323C193.231 311.683 192.128 312.787 190.766 312.787Z" fill="white"/>
<path d="M382.175 133.087H350.111C348.75 133.087 347.645 131.984 347.645 130.621C347.645 129.258 348.75 128.156 350.111 128.156H382.175C383.536 128.156 384.64 129.258 384.64 130.621C384.64 131.984 383.536 133.087 382.175 133.087Z" fill="#6C9CD5"/>
<path d="M382.175 161.191H350.111C348.75 161.191 347.645 160.088 347.645 158.725C347.645 157.363 348.75 156.26 350.111 156.26H382.175C383.536 156.26 384.64 157.363 384.64 158.725C384.64 160.088 383.536 161.191 382.175 161.191Z" fill="#6C9CD5"/>
<path d="M382.175 189.298H350.111C348.75 189.298 347.645 188.195 347.645 186.833C347.645 185.47 348.75 184.367 350.111 184.367H382.175C383.536 184.367 384.64 185.47 384.64 186.833C384.64 188.195 383.536 189.298 382.175 189.298Z" fill="#6C9CD5"/>
<path d="M382.175 217.404H350.111C348.75 217.404 347.645 216.3 347.645 214.939C347.645 213.578 348.75 212.473 350.111 212.473H382.175C383.536 212.473 384.64 213.578 384.64 214.939C384.64 216.3 383.536 217.404 382.175 217.404Z" fill="#6C9CD5"/>
<path d="M382.175 245.508H350.111C348.75 245.508 347.645 244.404 347.645 243.043C347.645 241.682 348.75 240.577 350.111 240.577H382.175C383.536 240.577 384.64 241.682 384.64 243.043C384.64 244.404 383.536 245.508 382.175 245.508Z" fill="#6C9CD5"/>
<path d="M432.242 133.087H400.18C398.819 133.087 397.714 131.984 397.714 130.621C397.714 129.258 398.819 128.156 400.18 128.156H432.242C433.603 128.156 434.708 129.258 434.708 130.621C434.708 131.984 433.603 133.087 432.242 133.087Z" fill="#6C9CD5"/>
<path d="M432.242 161.191H400.18C398.819 161.191 397.714 160.088 397.714 158.725C397.714 157.363 398.819 156.26 400.18 156.26H432.242C433.603 156.26 434.708 157.363 434.708 158.725C434.708 160.088 433.603 161.191 432.242 161.191Z" fill="#6C9CD5"/>
<path d="M432.242 189.298H400.18C398.819 189.298 397.714 188.195 397.714 186.833C397.714 185.47 398.819 184.367 400.18 184.367H432.242C433.603 184.367 434.708 185.47 434.708 186.833C434.708 188.195 433.603 189.298 432.242 189.298Z" fill="#6C9CD5"/>
<path d="M432.242 217.404H400.18C398.819 217.404 397.714 216.3 397.714 214.939C397.714 213.578 398.819 212.473 400.18 212.473H432.242C433.603 212.473 434.708 213.578 434.708 214.939C434.708 216.3 433.603 217.404 432.242 217.404Z" fill="#6C9CD5"/>
<path d="M432.242 245.508H400.18C398.819 245.508 397.714 244.404 397.714 243.043C397.714 241.682 398.819 240.577 400.18 240.577H432.242C433.603 240.577 434.708 241.682 434.708 243.043C434.708 244.404 433.603 245.508 432.242 245.508Z" fill="#6C9CD5"/>
<path d="M382.175 273.614H350.111C348.75 273.614 347.645 272.509 347.645 271.148C347.645 269.787 348.75 268.683 350.111 268.683H382.175C383.536 268.683 384.64 269.787 384.64 271.148C384.64 272.509 383.536 273.614 382.175 273.614Z" fill="#6C9CD5"/>
<path d="M432.242 273.614H400.18C398.819 273.614 397.714 272.509 397.714 271.148C397.714 269.787 398.819 268.683 400.18 268.683H432.242C433.603 268.683 434.708 269.787 434.708 271.148C434.708 272.509 433.603 273.614 432.242 273.614Z" fill="#6C9CD5"/>
<path d="M377.781 465.993H171.768C170.405 465.993 169.302 464.888 169.302 463.527C169.302 462.166 170.405 461.062 171.768 461.062H377.779C379.14 461.062 380.245 462.166 380.245 463.527C380.245 464.888 379.142 465.993 377.781 465.993Z" fill="#6C9CD5"/>
</svg>
