<svg width="556" height="363" viewBox="0 0 556 363" fill="none" xmlns="http://www.w3.org/2000/svg">
<path d="M99.2383 359.556V313.728C99.2383 309.51 102.657 306.089 106.877 306.089H132.336C136.554 306.089 139.975 309.508 139.975 313.728V359.556" fill="#FFE09E"/>
<path d="M142.476 359.558H137.473V313.729C137.473 310.897 135.17 308.593 132.338 308.593H106.877C104.045 308.593 101.74 310.897 101.74 313.729V359.558H96.7365V313.729C96.7365 308.137 101.286 303.589 106.877 303.589H132.338C137.928 303.589 142.476 308.139 142.476 313.729V359.558Z" fill="#6C9CD5"/>
<path d="M442.775 359.556V313.728C442.775 309.51 446.194 306.089 450.413 306.089H475.873C480.091 306.089 483.511 309.508 483.511 313.728V359.556" fill="#FFE09E"/>
<path d="M486.011 359.558H481.008V313.729C481.008 310.897 478.703 308.593 475.871 308.593H450.412C447.58 308.593 445.275 310.897 445.275 313.729V359.558H440.271V313.729C440.271 308.137 444.821 303.589 450.412 303.589H475.871C481.463 303.589 486.011 308.139 486.011 313.729V359.558Z" fill="#6C9CD5"/>
<path d="M336.854 269.304V223.149C336.854 219.867 339.514 217.206 342.796 217.206H371.651C374.933 217.206 377.593 219.867 377.593 223.149V269.304" fill="#FFE09E"/>
<path d="M380.096 269.304H375.093V223.147C375.093 221.249 373.549 219.706 371.652 219.706H342.796C340.898 219.706 339.357 221.249 339.357 223.147V269.304H334.353V223.147C334.353 218.491 338.141 214.703 342.796 214.703H371.652C376.309 214.703 380.096 218.491 380.096 223.147V269.304Z" fill="#6C9CD5"/>
<path d="M525.715 166.393H286.594C285.213 166.393 284.092 165.274 284.092 163.891C284.092 162.509 285.213 161.389 286.594 161.389H525.715C527.096 161.389 528.217 162.509 528.217 163.891C528.217 165.274 527.096 166.393 525.715 166.393Z" fill="#6C9CD5"/>
<path d="M122.596 142.672V96.5166C122.596 93.2344 125.256 90.5742 128.538 90.5742H157.393C160.675 90.5742 163.335 93.2344 163.335 96.5166V142.672" fill="#FFE09E"/>
<path d="M165.841 142.672H160.838V96.5167C160.838 94.6187 159.293 93.076 157.397 93.076H128.54C126.642 93.076 125.101 94.6187 125.101 96.5167V142.672H120.098V96.5167C120.098 91.8601 123.886 88.0725 128.54 88.0725H157.397C162.053 88.0725 165.841 91.8601 165.841 96.5167V142.672Z" fill="#6C9CD5"/>
<path d="M354.085 159.268C352.705 159.268 351.584 158.149 351.584 156.767V72.4201C351.584 71.0375 352.705 69.9184 354.085 69.9184C355.466 69.9184 356.587 71.0375 356.587 72.4201V156.767C356.587 158.148 355.466 159.268 354.085 159.268Z" fill="#6C9CD5"/>
<path d="M473.044 159.268C471.663 159.268 470.542 158.149 470.542 156.767V72.4201C470.542 71.0375 471.663 69.9184 473.044 69.9184C474.425 69.9184 475.545 71.0375 475.545 72.4201V156.767C475.545 158.148 474.425 159.268 473.044 159.268Z" fill="#6C9CD5"/>
<path d="M351.348 71.4857H479.552L448.484 33.5829H377.675L351.348 71.4857Z" fill="#FFE09E"/>
<path d="M479.552 73.9877H351.348C350.416 73.9877 349.564 73.4707 349.132 72.6451C348.7 71.8195 348.762 70.8238 349.294 70.0583L375.62 32.1555C376.089 31.4817 376.856 31.0798 377.675 31.0798H448.484C449.233 31.0798 449.943 31.4167 450.418 31.9954L481.486 69.8982C482.098 70.6454 482.225 71.6794 481.812 72.5533C481.4 73.4306 480.519 73.9877 479.552 73.9877ZM356.132 68.9842H474.266L447.299 36.0849H378.983L356.132 68.9842Z" fill="#6C9CD5"/>
<path d="M374.883 157.208V116.5C374.883 113.605 377.23 111.258 380.125 111.258H405.574C408.469 111.258 410.816 113.605 410.816 116.5V157.208" fill="#FFE09E"/>
<path d="M413.316 157.208H408.313V116.5C408.313 114.989 407.084 113.76 405.573 113.76H380.122C378.612 113.76 377.381 114.989 377.381 116.5V157.208H372.378V116.5C372.378 112.231 375.852 108.756 380.122 108.756H405.573C409.842 108.756 413.316 112.231 413.316 116.5V157.208Z" fill="#6C9CD5"/>
<path d="M380.88 131.266C379.499 131.266 378.379 130.146 378.379 128.764V119.154C378.379 117.64 378.534 116.09 379.663 115.009C380.859 113.867 382.34 113.932 383.779 113.995C384.193 114.014 384.665 114.034 385.205 114.034C386.586 114.034 387.707 115.153 387.707 116.535C387.707 117.918 386.586 119.037 385.205 119.037C384.583 119.037 384.036 119.014 383.559 118.994C383.502 118.992 383.444 118.989 383.385 118.985C383.384 119.039 383.384 119.094 383.384 119.154V128.764C383.382 130.145 382.261 131.266 380.88 131.266Z" fill="white"/>
<path d="M375.545 73.7238L392.508 52.7794L410.207 74.019" fill="white"/>
<path d="M410.209 76.5211C409.492 76.5211 408.781 76.2142 408.286 75.6205L392.537 56.7191L377.492 75.2969C376.623 76.3693 375.048 76.5377 373.973 75.6671C372.898 74.7982 372.733 73.2221 373.602 72.1497L390.564 51.2053C391.036 50.6233 391.743 50.283 392.49 50.278C393.318 50.2597 393.95 50.6033 394.43 51.1786L412.129 72.4182C413.013 73.4806 412.869 75.0584 411.809 75.9424C411.342 76.331 410.773 76.5211 410.209 76.5211Z" fill="#6C9CD5"/>
<path d="M392.877 90.3906C397.968 90.3906 402.095 86.2635 402.095 81.1726C402.095 76.0816 397.968 71.9546 392.877 71.9546C387.786 71.9546 383.659 76.0816 383.659 81.1726C383.659 86.2635 387.786 90.3906 392.877 90.3906Z" fill="#FFE09E"/>
<path d="M392.877 92.894C386.414 92.894 381.156 87.637 381.156 81.1742C381.156 74.7115 386.414 69.4545 392.877 69.4545C399.34 69.4545 404.597 74.7115 404.597 81.1742C404.597 87.637 399.34 92.894 392.877 92.894ZM392.877 74.4563C389.171 74.4563 386.159 77.47 386.159 81.1726C386.159 84.8751 389.173 87.8889 392.877 87.8889C396.581 87.8889 399.593 84.8751 399.593 81.1726C399.593 77.47 396.581 74.4563 392.877 74.4563Z" fill="#6C9CD5"/>
<path d="M317.725 133.234C317.725 143.009 311.606 147.427 304.057 147.427C296.509 147.427 290.39 143.007 290.39 133.234C290.39 123.46 296.509 119.117 304.057 119.117C311.606 119.117 317.725 123.46 317.725 133.234Z" fill="#C3E8FC"/>
<path d="M304.057 149.93C294.236 149.93 287.89 143.377 287.89 133.235C287.89 122.985 294.086 116.617 304.057 116.617C314.031 116.617 320.227 122.985 320.227 133.235C320.227 143.376 313.879 149.93 304.057 149.93ZM304.057 121.619C300.7 121.619 292.893 122.751 292.893 133.234C292.893 143.786 300.702 144.925 304.057 144.925C307.413 144.925 315.224 143.786 315.224 133.234C315.224 122.751 307.413 121.619 304.057 121.619Z" fill="#6C9CD5"/>
<path d="M306.559 147.972H301.556V161.798H306.559V147.972Z" fill="#6C9CD5"/>
<path d="M516.753 135.458C516.753 145.233 510.633 149.652 503.085 149.652C495.536 149.652 489.417 145.232 489.417 135.458C489.417 125.683 495.536 121.342 503.085 121.342C510.633 121.342 516.753 125.683 516.753 135.458Z" fill="#C3E8FC"/>
<path d="M503.085 152.153C493.261 152.153 486.915 145.599 486.915 135.457C486.915 125.206 493.111 118.839 503.085 118.839C513.058 118.839 519.254 125.206 519.254 135.457C519.254 145.6 512.906 152.153 503.085 152.153ZM503.085 123.844C499.727 123.844 491.919 124.976 491.919 135.458C491.919 146.012 499.729 147.151 503.085 147.151C506.44 147.151 514.251 146.012 514.251 135.458C514.251 124.974 506.44 123.844 503.085 123.844Z" fill="#6C9CD5"/>
<path d="M505.586 150.195H500.583V164.021H505.586V150.195Z" fill="#6C9CD5"/>
<path d="M156.156 146.064H59.2073C57.8263 146.064 56.7056 144.945 56.7056 143.562C56.7056 142.18 57.8263 141.061 59.2073 141.061H156.156C157.537 141.061 158.657 142.18 158.657 143.562C158.657 144.945 157.537 146.064 156.156 146.064Z" fill="#6C9CD5"/>
<path d="M90.4904 115.968C90.4904 124.924 84.8832 128.972 77.9685 128.972C71.0537 128.972 65.4465 124.923 65.4465 115.968C65.4465 107.012 71.0537 103.034 77.9685 103.034C84.8832 103.034 90.4904 107.014 90.4904 115.968Z" fill="#C3E8FC"/>
<path d="M77.9668 131.476C68.8389 131.476 62.9415 125.39 62.9415 115.97C62.9415 106.45 68.6988 100.534 77.9668 100.534C87.2349 100.534 92.9921 106.448 92.9921 115.97C92.9921 125.388 87.0948 131.476 77.9668 131.476ZM77.9668 105.538C74.2242 105.538 67.945 106.892 67.945 115.97C67.945 125.45 74.9531 126.472 77.9668 126.472C80.9806 126.472 87.9888 125.448 87.9888 115.97C87.9888 106.892 81.7094 105.538 77.9668 105.538Z" fill="#6C9CD5"/>
<path d="M80.4688 129.473H75.4653V142.14H80.4688V129.473Z" fill="#6C9CD5"/>
<path d="M99.0165 144.671C97.6355 144.671 96.5148 143.552 96.5148 142.17V46.5354C96.5148 45.1528 97.6355 44.0337 99.0165 44.0337C100.397 44.0337 101.518 45.1528 101.518 46.5354V142.17C101.518 143.551 100.397 144.671 99.0165 144.671Z" fill="#6C9CD5"/>
<path d="M237.595 144.671C236.214 144.671 235.093 143.552 235.093 142.17V46.5354C235.093 45.1528 236.214 44.0337 237.595 44.0337C238.976 44.0337 240.097 45.1528 240.097 46.5354V142.17C240.097 143.551 238.976 144.671 237.595 144.671Z" fill="#6C9CD5"/>
<path d="M95.9126 45.4763H241.275L206.048 2.50169H125.763L95.9126 45.4763Z" fill="#FFE09E"/>
<path d="M241.274 47.978H95.9126C94.9803 47.978 94.128 47.461 93.6961 46.6355C93.2641 45.8099 93.3259 44.8142 93.8579 44.0486L123.708 1.07404C124.177 0.401913 124.944 0 125.763 0H206.048C206.797 0 207.508 0.336866 207.983 0.915598L243.209 43.8902C243.821 44.6374 243.948 45.6714 243.534 46.5454C243.121 47.421 242.242 47.978 241.274 47.978ZM100.696 42.9746H235.989L204.864 5.00344H127.071L100.696 42.9746Z" fill="#6C9CD5"/>
<path d="M129.397 112.921C128.016 112.921 126.896 111.802 126.896 110.419V99.5236C126.896 97.8808 127.061 96.2046 128.248 95.0672C129.501 93.8697 131.039 93.9348 132.668 94.0081C133.14 94.0282 133.682 94.0532 134.301 94.0532C135.682 94.0532 136.803 95.1723 136.803 96.5549C136.803 97.9375 135.682 99.0566 134.301 99.0566C133.6 99.0566 132.987 99.0299 132.451 99.0066C132.278 98.9999 132.089 98.9916 131.911 98.9849C131.904 99.1334 131.901 99.3118 131.901 99.5236V110.419C131.899 111.8 130.778 112.921 129.397 112.921Z" fill="white"/>
<path d="M123.35 48.0148L142.582 24.2667L162.65 48.3483" fill="white"/>
<path d="M162.65 50.85C161.933 50.85 161.223 50.5432 160.727 49.9495L142.61 28.2061L125.295 49.5875C124.424 50.6599 122.851 50.8284 121.776 49.9578C120.702 49.0888 120.536 47.5128 121.405 46.4404L140.637 22.6923C141.109 22.1103 141.816 21.77 142.563 21.765C143.267 21.79 144.023 22.0903 144.503 22.6657L164.57 46.7472C165.454 47.8096 165.31 49.3874 164.25 50.2713C163.783 50.6616 163.214 50.85 162.65 50.85Z" fill="#6C9CD5"/>
<path d="M154.54 76.668L172.098 27.3324H269.934L290.001 76.668" fill="#FFE09E"/>
<path d="M154.538 79.1696C154.259 79.1696 153.976 79.1229 153.699 79.0245C152.398 78.5608 151.718 77.1298 152.181 75.829L169.742 26.4933C170.097 25.4959 171.039 24.8305 172.098 24.8305H269.933C270.95 24.8305 271.866 25.4476 272.251 26.3899L292.32 75.7255C292.84 77.0064 292.225 78.4657 290.945 78.9861C289.658 79.5064 288.205 78.8877 287.685 77.6118L268.251 29.8356H173.865L156.895 77.5067C156.531 78.5308 155.565 79.1696 154.538 79.1696Z" fill="#6C9CD5"/>
<path d="M143 66.9127C148.773 66.9127 153.452 62.2331 153.452 56.4605C153.452 50.688 148.773 46.0083 143 46.0083C137.227 46.0083 132.548 50.688 132.548 56.4605C132.548 62.2331 137.227 66.9127 143 66.9127Z" fill="#FFE09E"/>
<path d="M143 69.4146C135.857 69.4146 130.045 63.6039 130.045 56.4607C130.045 49.3174 135.855 43.5067 143 43.5067C150.142 43.5067 155.954 49.3174 155.954 56.4607C155.954 63.6039 150.142 69.4146 143 69.4146ZM143 48.5102C138.615 48.5102 135.048 52.0776 135.048 56.4607C135.048 60.8437 138.615 64.4111 143 64.4111C147.383 64.4111 150.951 60.8437 150.951 56.4607C150.951 52.0776 147.383 48.5102 143 48.5102Z" fill="#6C9CD5"/>
<path d="M153.926 208.072V81.0741C153.926 78.2655 156.202 75.9889 159.011 75.9889H285.975C288.784 75.9889 291.06 78.2655 291.06 81.0741V231.608" fill="white"/>
<path d="M293.564 231.606H288.56V81.0723C288.56 79.648 287.401 78.4889 285.975 78.4889H159.011C157.587 78.4889 156.428 79.648 156.428 81.0723V208.07H151.424V81.0723C151.424 76.8894 154.828 73.4854 159.011 73.4854H285.975C290.16 73.4854 293.564 76.8894 293.564 81.0723V231.606Z" fill="#6C9CD5"/>
<path d="M206.689 129.626C206.689 132.396 204.442 134.643 201.672 134.643H177.31C174.54 134.643 172.293 132.396 172.293 129.626V99.5237C172.293 96.7534 174.54 94.5068 177.31 94.5068H201.672C204.442 94.5068 206.689 96.7534 206.689 99.5237V129.626Z" fill="#FFE09E"/>
<path d="M201.672 137.146H177.312C173.167 137.146 169.793 133.774 169.793 129.627V99.525C169.793 95.3788 173.166 92.0065 177.312 92.0065H201.672C205.818 92.0065 209.192 95.3788 209.192 99.525V129.627C209.192 133.772 205.818 137.146 201.672 137.146ZM177.31 97.0082C175.924 97.0082 174.795 98.1374 174.795 99.5233V129.626C174.795 131.013 175.924 132.141 177.31 132.141H201.67C203.058 132.141 204.187 131.012 204.187 129.626V99.5233C204.187 98.1357 203.058 97.0082 201.67 97.0082H177.31Z" fill="#6C9CD5"/>
<path d="M179.54 115.406C178.159 115.406 177.038 114.287 177.038 112.904V103.706C177.038 102.234 177.192 100.724 178.301 99.662C179.477 98.5378 180.926 98.6013 182.319 98.6596C182.712 98.6763 183.166 98.6963 183.679 98.6963C185.06 98.6963 186.181 99.8154 186.181 101.198C186.181 102.581 185.06 103.7 183.679 103.7C183.082 103.7 182.557 103.678 182.1 103.658C182.08 103.658 182.062 103.656 182.042 103.656C182.042 103.673 182.042 103.69 182.042 103.706V112.904C182.042 114.285 180.923 115.406 179.54 115.406Z" fill="white"/>
<path d="M208.023 204.329C206.642 204.329 205.521 203.21 205.521 201.827V192.629C205.521 191.157 205.675 189.646 206.784 188.585C207.96 187.459 209.402 187.524 210.8 187.584C211.194 187.601 211.646 187.621 212.161 187.621C213.542 187.621 214.663 188.74 214.663 190.122C214.663 191.505 213.542 192.624 212.161 192.624C211.564 192.624 211.039 192.603 210.582 192.583C210.562 192.583 210.545 192.581 210.525 192.581C210.525 192.598 210.525 192.614 210.525 192.629V201.827C210.525 203.21 209.404 204.329 208.023 204.329Z" fill="white"/>
<path d="M268.108 129.626C268.108 132.396 265.861 134.643 263.091 134.643H238.729C235.959 134.643 233.712 132.396 233.712 129.626V99.5237C233.712 96.7534 235.959 94.5068 238.729 94.5068H263.091C265.861 94.5068 268.108 96.7534 268.108 99.5237V129.626Z" fill="#FFE09E"/>
<path d="M263.091 137.146H238.731C234.586 137.146 231.212 133.774 231.212 129.627V99.525C231.212 95.3788 234.585 92.0065 238.731 92.0065H263.091C267.237 92.0065 270.611 95.3788 270.611 99.525V129.627C270.611 133.772 267.237 137.146 263.091 137.146ZM238.731 97.0082C237.345 97.0082 236.216 98.1374 236.216 99.5233V129.626C236.216 131.013 237.345 132.141 238.731 132.141H263.091C264.478 132.141 265.608 131.012 265.608 129.626V99.5233C265.608 98.1357 264.478 97.0082 263.091 97.0082H238.731Z" fill="#6C9CD5"/>
<path d="M240.961 115.406C239.58 115.406 238.459 114.287 238.459 112.904V103.706C238.459 102.234 238.613 100.724 239.722 99.662C240.896 98.5378 242.34 98.6013 243.739 98.6596C244.133 98.6763 244.585 98.6963 245.099 98.6963C246.48 98.6963 247.601 99.8154 247.601 101.198C247.601 102.581 246.48 103.7 245.099 103.7C244.502 103.7 243.978 103.678 243.521 103.658C243.501 103.658 243.483 103.656 243.463 103.656C243.463 103.673 243.463 103.69 243.463 103.706V112.904C243.463 114.285 242.342 115.406 240.961 115.406Z" fill="white"/>
<path d="M268.108 205.12C268.108 207.89 265.861 210.136 263.091 210.136H238.729C235.959 210.136 233.712 207.89 233.712 205.12V175.017C233.712 172.247 235.959 170 238.729 170H263.091C265.861 170 268.108 172.247 268.108 175.017V205.12Z" fill="#FFE09E"/>
<path d="M263.091 212.638H238.731C234.586 212.638 231.212 209.266 231.212 205.12V175.017C231.212 170.871 234.585 167.499 238.731 167.499H263.091C267.237 167.499 270.611 170.871 270.611 175.017V205.12C270.611 209.264 267.237 212.638 263.091 212.638ZM238.731 172.5C237.345 172.5 236.216 173.628 236.216 175.015V205.118C236.216 206.506 237.345 207.633 238.731 207.633H263.091C264.478 207.633 265.608 206.504 265.608 205.118V175.015C265.608 173.628 264.478 172.5 263.091 172.5H238.731Z" fill="#6C9CD5"/>
<path d="M240.961 190.898C239.58 190.898 238.459 189.779 238.459 188.397V179.199C238.459 177.726 238.613 176.216 239.722 175.154C240.896 174.032 242.337 174.095 243.738 174.153C244.131 174.17 244.585 174.19 245.099 174.19C246.48 174.19 247.601 175.309 247.601 176.692C247.601 178.074 246.48 179.194 245.099 179.194C244.502 179.194 243.976 179.172 243.519 179.152C243.499 179.152 243.483 179.15 243.463 179.15C243.463 179.167 243.463 179.184 243.463 179.199V188.397C243.463 189.778 242.342 190.898 240.961 190.898Z" fill="white"/>
<path d="M544.873 272.698H253.346C251.965 272.698 250.844 271.577 250.844 270.196C250.844 268.815 251.965 267.695 253.346 267.695H544.873C546.254 267.695 547.375 268.815 547.375 270.196C547.375 271.577 546.254 272.698 544.873 272.698Z" fill="#6C9CD5"/>
<path d="M79.2212 244.101H25.8511C24.4701 244.101 23.3494 242.981 23.3494 241.6C23.3494 240.219 24.4701 239.098 25.8511 239.098H79.2212C80.6021 239.098 81.7229 240.219 81.7229 241.6C81.7229 242.981 80.6021 244.101 79.2212 244.101Z" fill="#6C9CD5"/>
<path d="M65.82 307.989C65.82 325.472 54.8741 333.376 41.3715 333.376C27.8688 333.376 16.923 325.471 16.923 307.989C16.923 290.507 27.8688 282.738 41.3715 282.738C54.8741 282.738 65.82 290.505 65.82 307.989Z" fill="#C3E8FC"/>
<path d="M41.3733 335.878C24.7485 335.878 14.4231 325.191 14.4231 307.987C14.4231 290.869 24.7485 280.235 41.3733 280.235C57.9964 280.235 68.3218 290.869 68.3218 307.987C68.3218 325.191 57.9948 335.878 41.3733 335.878ZM41.3733 285.24C34.7738 285.24 19.4265 287.456 19.4265 307.989C19.4265 322.32 27.6305 330.876 41.3733 330.876C55.1144 330.876 63.3183 322.32 63.3183 307.989C63.3183 287.456 47.9712 285.24 41.3733 285.24Z" fill="#6C9CD5"/>
<path d="M43.8753 334.349H38.8718V359.079H43.8753V334.349Z" fill="#6C9CD5"/>
<path d="M351.24 307.989C351.24 325.472 340.294 333.376 326.792 333.376C313.289 333.376 302.343 325.471 302.343 307.989C302.343 290.507 313.289 282.738 326.792 282.738C340.294 282.738 351.24 290.505 351.24 307.989Z" fill="#C3E8FC"/>
<path d="M326.792 335.878C310.167 335.878 299.842 325.191 299.842 307.987C299.842 290.869 310.167 280.235 326.792 280.235C343.415 280.235 353.74 290.869 353.74 307.987C353.742 325.191 343.415 335.878 326.792 335.878ZM326.792 285.24C320.192 285.24 304.845 287.456 304.845 307.989C304.845 322.32 313.049 330.876 326.792 330.876C340.533 330.876 348.737 322.32 348.737 307.989C348.739 287.456 333.39 285.24 326.792 285.24Z" fill="#6C9CD5"/>
<path d="M329.293 334.349H324.29V359.079H329.293V334.349Z" fill="#6C9CD5"/>
<path d="M304.748 234.468C304.748 246.206 297.4 251.513 288.333 251.513C279.269 251.513 271.919 246.206 271.919 234.468C271.919 222.73 279.267 217.515 288.333 217.515C297.398 217.516 304.748 222.73 304.748 234.468Z" fill="#C3E8FC"/>
<path d="M288.333 254.015C276.665 254.015 269.417 246.525 269.417 234.468C269.417 222.468 276.665 215.013 288.333 215.013C300.001 215.013 307.25 222.468 307.25 234.468C307.25 246.525 300.001 254.015 288.333 254.015ZM288.333 220.018C284.15 220.018 274.42 221.428 274.42 234.47C274.42 247.596 284.15 249.013 288.333 249.013C292.516 249.013 302.246 247.596 302.246 234.47C302.246 221.426 292.516 220.018 288.333 220.018Z" fill="#6C9CD5"/>
<path d="M290.835 252.167H285.832V268.772H290.835V252.167Z" fill="#6C9CD5"/>
<path d="M548.915 326.45C548.915 338.188 541.566 343.495 532.5 343.495C523.434 343.495 516.085 338.188 516.085 326.45C516.085 314.712 523.434 309.497 532.5 309.497C541.566 309.497 548.915 314.712 548.915 326.45Z" fill="#C3E8FC"/>
<path d="M532.5 345.998C520.832 345.998 513.583 338.508 513.583 326.45C513.583 314.45 520.832 306.995 532.5 306.995C544.168 306.995 551.416 314.45 551.416 326.45C551.416 338.508 544.168 345.998 532.5 345.998ZM532.5 311.998C528.317 311.998 518.587 313.407 518.587 326.45C518.587 339.577 528.317 340.995 532.5 340.995C536.683 340.995 546.413 339.577 546.413 326.45C546.413 313.407 536.683 311.998 532.5 311.998Z" fill="#6C9CD5"/>
<path d="M535.001 344.149H529.998V360.752H535.001V344.149Z" fill="#6C9CD5"/>
<path d="M106.655 328.376C105.274 328.376 104.153 327.255 104.153 325.875V316.675C104.153 315.202 104.307 313.693 105.416 312.63C106.59 311.506 108.031 311.571 109.435 311.628C109.829 311.646 110.281 311.665 110.795 311.665C112.176 311.665 113.296 312.785 113.296 314.166C113.296 315.547 112.176 316.668 110.795 316.668C110.198 316.668 109.674 316.645 109.217 316.626C109.197 316.626 109.178 316.625 109.157 316.625C109.157 316.641 109.157 316.658 109.157 316.673V325.873C109.157 327.255 108.036 328.376 106.655 328.376Z" fill="white"/>
<path d="M79.1392 360.497C77.7582 360.497 76.6375 359.376 76.6375 357.995V225.877C76.6375 224.496 77.7582 223.376 79.1392 223.376C80.5201 223.376 81.6409 224.496 81.6409 225.877V357.995C81.6409 359.376 80.5201 360.497 79.1392 360.497Z" fill="#6C9CD5"/>
<path d="M253.276 360.497C251.895 360.497 250.774 359.376 250.774 357.995V225.877C250.774 224.496 251.895 223.376 253.276 223.376C254.657 223.376 255.778 224.496 255.778 225.877V357.995C255.778 359.376 254.657 360.497 253.276 360.497Z" fill="#6C9CD5"/>
<path d="M74.8531 224.414H258.358L231.373 165.045H98.783L74.8531 224.414Z" fill="#FFE09E"/>
<path d="M258.358 226.915H74.8532C74.0226 226.915 73.2454 226.501 72.7801 225.812C72.3148 225.123 72.2231 224.248 72.5333 223.479L96.4631 164.11C96.845 163.162 97.7623 162.544 98.7847 162.544H231.374C232.355 162.544 233.246 163.117 233.651 164.01L260.638 223.377C260.99 224.153 260.925 225.052 260.464 225.769C260.002 226.484 259.208 226.915 258.358 226.915ZM78.559 221.911H254.475L229.763 167.545H100.472L78.559 221.911Z" fill="#6C9CD5"/>
<path d="M237.125 339.098C237.125 341.868 234.878 344.115 232.108 344.115H164.321C161.551 344.115 159.305 341.868 159.305 339.098V308.996C159.305 306.226 161.551 303.979 164.321 303.979H232.108C234.878 303.979 237.125 306.226 237.125 308.996V339.098Z" fill="#FFE09E"/>
<path d="M232.108 346.617H164.32C160.173 346.617 156.799 343.244 156.799 339.098V308.994C156.799 304.85 160.172 301.476 164.32 301.476H232.108C236.252 301.476 239.626 304.848 239.626 308.994V339.098C239.626 343.243 236.252 346.617 232.108 346.617ZM164.32 306.479C162.932 306.479 161.803 307.608 161.803 308.994V339.098C161.803 340.484 162.932 341.613 164.32 341.613H232.108C233.494 341.613 234.623 340.484 234.623 339.098V308.994C234.623 307.608 233.494 306.479 232.108 306.479H164.32Z" fill="#6C9CD5"/>
<path d="M166.55 324.877C165.169 324.877 164.048 323.756 164.048 322.375V313.177C164.048 311.703 164.201 310.195 165.311 309.133C166.485 308.007 167.934 308.069 169.327 308.13C169.722 308.149 170.174 308.167 170.688 308.167C172.069 308.167 173.189 309.288 173.189 310.669C173.189 312.05 172.069 313.17 170.688 313.17C170.09 313.17 169.565 313.147 169.108 313.129C169.09 313.127 169.071 313.127 169.051 313.125C169.051 313.142 169.051 313.16 169.051 313.175V322.373C169.051 323.756 167.931 324.877 166.55 324.877Z" fill="white"/>
<path d="M200.716 305.315H195.713V345.451H200.716V305.315Z" fill="#6C9CD5"/>
<path d="M137.673 275.548C137.673 278.318 135.426 280.565 132.656 280.565H108.294C105.524 280.565 103.278 278.318 103.278 275.548V245.446C103.278 242.676 105.524 240.429 108.294 240.429H132.656C135.426 240.429 137.673 242.676 137.673 245.446V275.548Z" fill="#FFE09E"/>
<path d="M132.656 283.065H108.296C104.15 283.065 100.776 279.692 100.776 275.546V245.444C100.776 241.298 104.148 237.924 108.296 237.924H132.656C136.801 237.924 140.175 241.296 140.175 245.444V275.546C140.175 279.692 136.801 283.065 132.656 283.065ZM108.296 242.929C106.908 242.929 105.779 244.058 105.779 245.445V275.548C105.779 276.934 106.908 278.063 108.296 278.063H132.656C134.042 278.063 135.171 276.934 135.171 275.548V245.445C135.171 244.058 134.042 242.929 132.656 242.929H108.296V242.929Z" fill="#6C9CD5"/>
<path d="M110.526 261.325C109.145 261.325 108.024 260.204 108.024 258.823V249.625C108.024 248.151 108.178 246.643 109.287 245.581C110.461 244.455 111.908 244.517 113.303 244.578C113.698 244.597 114.15 244.615 114.664 244.615C116.045 244.615 117.166 245.736 117.166 247.117C117.166 248.498 116.045 249.618 114.664 249.618C114.067 249.618 113.541 249.595 113.084 249.577C113.066 249.575 113.048 249.575 113.028 249.573C113.028 249.59 113.028 249.608 113.028 249.623V258.821C113.028 260.204 111.907 261.325 110.526 261.325Z" fill="white"/>
<path d="M217.948 275.548C217.948 278.318 215.702 280.565 212.932 280.565H188.57C185.8 280.565 183.553 278.318 183.553 275.548V245.446C183.553 242.676 185.8 240.429 188.57 240.429H212.932C215.702 240.429 217.948 242.676 217.948 245.446V275.548Z" fill="#FFE09E"/>
<path d="M212.932 283.065H188.57C184.425 283.065 181.051 279.692 181.051 275.546V245.444C181.051 241.298 184.424 237.924 188.57 237.924H212.932C217.076 237.924 220.45 241.296 220.45 245.444V275.546C220.45 279.692 217.076 283.065 212.932 283.065ZM188.568 242.929C187.182 242.929 186.053 244.058 186.053 245.445V275.548C186.053 276.934 187.182 278.063 188.568 278.063H212.93C214.316 278.063 215.445 276.934 215.445 275.548V245.445C215.445 244.058 214.316 242.929 212.93 242.929H188.568V242.929Z" fill="#6C9CD5"/>
<path d="M190.8 261.325C189.419 261.325 188.298 260.204 188.298 258.823V249.625C188.298 248.151 188.451 246.641 189.56 245.581C190.736 244.452 192.182 244.512 193.577 244.578C193.97 244.597 194.424 244.615 194.937 244.615C196.318 244.615 197.439 245.736 197.439 247.117C197.439 248.498 196.318 249.618 194.937 249.618C194.34 249.618 193.815 249.595 193.358 249.577C193.338 249.575 193.321 249.575 193.301 249.573C193.301 249.59 193.301 249.608 193.301 249.623V258.821C193.301 260.204 192.181 261.325 190.8 261.325Z" fill="white"/>
<path d="M313.274 271.305C311.893 271.305 310.772 270.184 310.772 268.804V173.169C310.772 171.787 311.893 170.668 313.274 170.668C314.655 170.668 315.776 171.787 315.776 173.169V268.804C315.776 270.184 314.655 271.305 313.274 271.305Z" fill="#6C9CD5"/>
<path d="M451.853 271.305C450.472 271.305 449.351 270.184 449.351 268.804V173.169C449.351 171.787 450.472 170.668 451.853 170.668C453.234 170.668 454.355 171.787 454.355 173.169V268.804C454.355 270.184 453.234 271.305 451.853 271.305Z" fill="#6C9CD5"/>
<path d="M310.17 172.108H455.532L420.306 129.134H340.021L310.17 172.108Z" fill="#FFE09E"/>
<path d="M455.532 174.61H310.17C309.238 174.61 308.386 174.093 307.954 173.267C307.522 172.442 307.583 171.446 308.115 170.681L337.966 127.706C338.435 127.034 339.202 126.632 340.021 126.632H420.306C421.055 126.632 421.765 126.969 422.241 127.548L457.467 170.522C458.079 171.269 458.205 172.304 457.792 173.177C457.378 174.053 456.499 174.61 455.532 174.61ZM314.954 169.607H450.247L419.122 131.636H341.328L314.954 169.607Z" fill="#6C9CD5"/>
<path d="M343.655 239.553C342.274 239.553 341.153 238.433 341.153 237.052V226.157C341.153 224.516 341.318 222.839 342.506 221.701C343.756 220.502 345.291 220.572 346.927 220.64C347.399 220.662 347.941 220.685 348.56 220.685C349.941 220.685 351.061 221.806 351.061 223.187C351.061 224.568 349.941 225.689 348.56 225.689C347.859 225.689 347.245 225.662 346.71 225.64C346.537 225.632 346.348 225.624 346.168 225.617C346.161 225.767 346.158 225.944 346.158 226.156V237.05C346.156 238.433 345.036 239.553 343.655 239.553Z" fill="white"/>
<path d="M337.608 174.647L356.839 150.899L376.908 174.982" fill="white"/>
<path d="M376.91 177.484C376.192 177.484 375.482 177.177 374.987 176.583L356.868 154.84L339.552 176.221C338.682 177.294 337.109 177.462 336.033 176.592C334.959 175.723 334.794 174.147 335.663 173.074L354.895 149.326C355.367 148.744 356.074 148.404 356.821 148.399C357.543 148.407 358.282 148.724 358.76 149.299L378.829 173.381C379.713 174.443 379.57 176.021 378.509 176.905C378.042 177.294 377.473 177.484 376.91 177.484Z" fill="#6C9CD5"/>
<path d="M368.797 203.3L386.356 153.964H484.192L504.259 203.3" fill="#FFE09E"/>
<path d="M368.797 205.804C368.519 205.804 368.235 205.757 367.958 205.658C366.658 205.195 365.977 203.764 366.441 202.463L383.999 153.127C384.355 152.13 385.297 151.464 386.356 151.464H484.19C485.207 151.464 486.123 152.082 486.508 153.024L506.577 202.36C507.097 203.64 506.482 205.1 505.203 205.62C503.914 206.142 502.461 205.523 501.942 204.246L482.509 156.47H388.122L371.154 204.141C370.789 205.163 369.825 205.804 368.797 205.804Z" fill="#6C9CD5"/>
<path d="M357.258 193.545C363.03 193.545 367.71 188.865 367.71 183.093C367.71 177.32 363.03 172.641 357.258 172.641C351.485 172.641 346.805 177.32 346.805 183.093C346.805 188.865 351.485 193.545 357.258 193.545Z" fill="#FFE09E"/>
<path d="M357.258 196.047C350.114 196.047 344.302 190.236 344.302 183.093C344.302 175.95 350.113 170.139 357.258 170.139C364.399 170.139 370.212 175.95 370.212 183.093C370.212 190.236 364.399 196.047 357.258 196.047ZM357.258 175.142C352.873 175.142 349.305 178.71 349.305 183.093C349.305 187.476 352.873 191.043 357.258 191.043C361.641 191.043 365.208 187.476 365.208 183.093C365.208 178.71 361.641 175.142 357.258 175.142Z" fill="#6C9CD5"/>
<path d="M368.183 358.238V207.704C368.183 204.896 370.46 202.619 373.268 202.619H500.232C503.041 202.619 505.318 204.896 505.318 207.704V358.238" fill="white"/>
<path d="M507.819 358.24H502.816V207.706C502.816 206.282 501.658 205.123 500.232 205.123H373.268C371.844 205.123 370.683 206.282 370.683 207.706V358.24H365.68V207.706C365.68 203.523 369.084 200.119 373.268 200.119H500.232C504.415 200.119 507.819 203.523 507.819 207.706V358.24Z" fill="#6C9CD5"/>
<path d="M552.881 363H2.50172C1.12077 363 0 361.879 0 360.498C0 359.117 1.12077 357.996 2.50172 357.996H552.881C554.262 357.996 555.382 359.117 555.382 360.498C555.382 361.879 554.262 363 552.881 363Z" fill="#6C9CD5"/>
<path d="M420.947 256.26C420.947 259.03 418.7 261.277 415.93 261.277H391.568C388.798 261.277 386.551 259.03 386.551 256.26V226.157C386.551 223.387 388.798 221.141 391.568 221.141H415.93C418.7 221.141 420.947 223.387 420.947 226.157V256.26Z" fill="#FFE09E"/>
<path d="M415.93 263.778H391.57C387.425 263.778 384.051 260.406 384.051 256.26V226.156C384.051 222.011 387.423 218.637 391.57 218.637H415.93C420.076 218.637 423.45 222.01 423.45 226.156V256.26C423.45 260.404 420.076 263.778 415.93 263.778ZM391.568 223.641C390.182 223.641 389.053 224.77 389.053 226.156V256.26C389.053 257.646 390.182 258.775 391.568 258.775H415.928C417.316 258.775 418.445 257.646 418.445 256.26V226.156C418.445 224.77 417.316 223.641 415.928 223.641H391.568Z" fill="#6C9CD5"/>
<path d="M393.798 242.038C392.417 242.038 391.296 240.917 391.296 239.536V230.339C391.296 228.864 391.45 227.356 392.559 226.294C393.734 225.165 395.179 225.225 396.576 225.292C396.97 225.31 397.424 225.328 397.937 225.328C399.318 225.328 400.439 226.449 400.439 227.83C400.439 229.211 399.318 230.332 397.937 230.332C397.34 230.332 396.815 230.308 396.358 230.29C396.338 230.288 396.319 230.288 396.299 230.287C396.299 230.303 396.299 230.322 396.299 230.337V239.535C396.299 240.917 395.179 242.038 393.798 242.038Z" fill="white"/>
<path d="M420.947 326.075C420.947 328.845 418.7 331.091 415.93 331.091H391.568C388.798 331.091 386.551 328.845 386.551 326.075V295.972C386.551 293.202 388.798 290.955 391.568 290.955H415.93C418.7 290.955 420.947 293.202 420.947 295.972V326.075Z" fill="#FFE09E"/>
<path d="M415.93 333.591H391.57C387.425 333.591 384.051 330.219 384.051 326.073V295.971C384.051 291.824 387.423 288.45 391.57 288.45H415.93C420.076 288.45 423.45 291.823 423.45 295.971V326.073C423.45 330.219 420.076 333.591 415.93 333.591ZM391.568 293.455C390.182 293.455 389.053 294.585 389.053 295.972V326.075C389.053 327.461 390.182 328.59 391.568 328.59H415.928C417.316 328.59 418.445 327.461 418.445 326.075V295.972C418.445 294.585 417.316 293.455 415.928 293.455H391.568Z" fill="#6C9CD5"/>
<path d="M393.798 311.853C392.417 311.853 391.296 310.732 391.296 309.351V300.152C391.296 298.679 391.45 297.17 392.559 296.107C393.733 294.983 395.174 295.046 396.578 295.105C396.972 295.123 397.424 295.142 397.937 295.142C399.318 295.142 400.439 296.262 400.439 297.643C400.439 299.024 399.318 300.145 397.937 300.145C397.34 300.145 396.817 300.122 396.36 300.103C396.34 300.103 396.321 300.102 396.299 300.102C396.299 300.118 396.299 300.135 396.299 300.15V309.35C396.299 310.732 395.179 311.853 393.798 311.853Z" fill="white"/>
<path d="M450.192 328.376C448.811 328.376 447.69 327.255 447.69 325.875V316.675C447.69 315.202 447.843 313.693 448.952 312.63C450.127 311.506 451.566 311.571 452.972 311.628C453.365 311.646 453.817 311.665 454.331 311.665C455.712 311.665 456.833 312.785 456.833 314.166C456.833 315.547 455.712 316.668 454.331 316.668C453.734 316.668 453.21 316.645 452.753 316.626C452.733 316.626 452.715 316.625 452.693 316.625C452.693 316.641 452.693 316.658 452.693 316.673V325.873C452.693 327.255 451.572 328.376 450.192 328.376Z" fill="white"/>
<path d="M482.365 256.26C482.365 259.03 480.119 261.277 477.348 261.277H452.987C450.216 261.277 447.97 259.03 447.97 256.26V226.157C447.97 223.387 450.216 221.141 452.987 221.141H477.348C480.119 221.141 482.365 223.387 482.365 226.157V256.26Z" fill="#FFE09E"/>
<path d="M477.348 263.778H452.988C448.844 263.778 445.47 260.406 445.47 256.26V226.156C445.47 222.011 448.842 218.637 452.988 218.637H477.348C481.495 218.637 484.869 222.01 484.869 226.156V256.26C484.869 260.404 481.495 263.778 477.348 263.778ZM452.987 223.641C451.601 223.641 450.472 224.77 450.472 226.156V256.26C450.472 257.646 451.601 258.775 452.987 258.775H477.347C478.734 258.775 479.863 257.646 479.863 256.26V226.156C479.863 224.77 478.734 223.641 477.347 223.641H452.987Z" fill="#6C9CD5"/>
<path d="M455.217 242.038C453.836 242.038 452.715 240.917 452.715 239.536V230.339C452.715 228.864 452.868 227.356 453.977 226.294C455.153 225.165 456.599 225.225 457.995 225.292C458.389 225.31 458.842 225.328 459.356 225.328C460.737 225.328 461.858 226.449 461.858 227.83C461.858 229.211 460.737 230.332 459.356 230.332C458.759 230.332 458.234 230.308 457.777 230.29C457.757 230.288 457.738 230.288 457.718 230.287C457.718 230.303 457.718 230.322 457.718 230.337V239.535C457.718 240.917 456.599 242.038 455.217 242.038Z" fill="white"/>
<path d="M456.548 127.126C456.548 129.199 454.867 130.88 452.793 130.88H434.566C432.493 130.88 430.812 129.199 430.812 127.126V104.602C430.812 102.529 432.493 100.848 434.566 100.848H452.793C454.867 100.848 456.548 102.529 456.548 104.602V127.126Z" fill="#FFE09E"/>
<path d="M452.793 133.382H434.565C431.118 133.382 428.311 130.575 428.311 127.128V104.604C428.311 101.155 431.118 98.3494 434.565 98.3494H452.793C456.242 98.3494 459.049 101.156 459.049 104.604V127.128C459.049 130.575 456.244 133.382 452.793 133.382ZM434.567 103.351C433.878 103.351 433.316 103.912 433.316 104.602V127.126C433.316 127.816 433.878 128.377 434.567 128.377H452.795C453.485 128.377 454.047 127.816 454.047 127.126V104.602C454.047 103.912 453.485 103.351 452.795 103.351H434.567Z" fill="#6C9CD5"/>
<path d="M436.237 117.116C434.856 117.116 433.735 115.997 433.735 114.614V107.733C433.735 106.49 433.874 105.209 434.874 104.252C435.948 103.223 437.278 103.283 438.343 103.328C438.63 103.341 438.959 103.356 439.334 103.356C440.715 103.356 441.836 104.475 441.836 105.858C441.836 107.24 440.715 108.36 439.334 108.36C439.124 108.36 438.927 108.356 438.74 108.351V114.616C438.739 115.997 437.618 117.116 436.237 117.116Z" fill="white"/>
</svg>
