<svg width="368" height="93" viewBox="0 0 368 93" fill="none" xmlns="http://www.w3.org/2000/svg">
<path d="M6.90885 2.786H13.4698L28.5358 51.143L27.1588 59.972L6.90885 2.786ZM43.1969 1.004L43.8449 7.565L29.5888 50.981C29.5888 50.981 29.4538 51.467 29.1838 52.439C28.9138 53.357 28.6438 54.518 28.3738 55.922C28.1038 57.272 27.9418 58.622 27.8878 59.972H27.1588L25.7008 52.763L42.4678 1.004H43.1969ZM43.1969 1.085L60.2068 48.794L58.4249 59.972L40.4428 9.833L43.1969 1.085ZM76.0829 2.786L60.9358 50.981C60.9358 50.981 60.8008 51.467 60.5308 52.439C60.2608 53.411 59.9638 54.599 59.6399 56.003C59.3699 57.353 59.2079 58.676 59.1538 59.972H58.4249L57.4529 51.953L71.5469 2.786H76.0829ZM70.0079 8.132C70.4399 6.512 70.3048 5.27 69.6028 4.406C68.9009 3.542 68.0099 3.11 66.9298 3.11H66.2008V2.3H82.1579V3.11C82.1579 3.11 82.0499 3.11 81.8339 3.11C81.6178 3.11 81.5098 3.11 81.5098 3.11C80.2678 3.11 78.9178 3.515 77.4598 4.325C76.0019 5.081 74.9759 6.35 74.3818 8.132H70.0079ZM15.1708 8.132H8.77185C8.12385 6.35 7.07085 5.081 5.61285 4.325C4.20885 3.515 2.88585 3.11 1.64385 3.11C1.64385 3.11 1.53585 3.11 1.31985 3.11C1.10385 3.11 0.995847 3.11 0.995847 3.11V2.3H18.9778V3.11H18.2488C17.2228 3.11 16.3048 3.542 15.4948 4.406C14.7388 5.27 14.6308 6.512 15.1708 8.132ZM104.389 1.166L128.365 58.514H121.48L102.769 8.861L104.389 1.166ZM86.9742 53.087C86.5962 54.167 86.5422 55.085 86.8122 55.841C87.0822 56.597 87.5142 57.191 88.1082 57.623C88.7562 58.001 89.4042 58.19 90.0522 58.19H90.7812V59H74.5002V58.19C74.5002 58.19 74.6352 58.19 74.9052 58.19C75.1212 58.19 75.2292 58.19 75.2292 58.19C76.4712 58.19 77.7402 57.812 79.0362 57.056C80.3862 56.246 81.4932 54.923 82.3572 53.087H86.9742ZM104.389 1.166L105.118 6.836L84.7872 58.757H79.9272L100.663 9.509C100.663 9.509 100.798 9.185 101.068 8.537C101.392 7.835 101.743 6.998 102.121 6.026C102.553 5.054 102.904 4.109 103.174 3.191C103.498 2.273 103.66 1.598 103.66 1.166H104.389ZM115.81 36.887V39.317H90.4572V36.887H115.81ZM119.455 53.087H126.097C126.907 54.923 127.987 56.246 129.337 57.056C130.687 57.812 131.983 58.19 133.225 58.19C133.225 58.19 133.333 58.19 133.549 58.19C133.765 58.19 133.873 58.19 133.873 58.19V59H115.648V58.19H116.377C117.403 58.19 118.321 57.758 119.131 56.894C119.941 55.976 120.049 54.707 119.455 53.087ZM150.147 2.3V59H144.882V2.3H150.147ZM172.017 56.489V59H149.904V56.489H172.017ZM176.958 45.878L172.26 59H158.814L161.73 56.489C164.592 56.489 166.914 56.057 168.696 55.193C170.532 54.275 172.017 53.006 173.151 51.386C174.285 49.766 175.284 47.93 176.148 45.878H176.958ZM145.125 53.087V59H138.645V58.19C138.645 58.19 138.807 58.19 139.131 58.19C139.509 58.19 139.698 58.19 139.698 58.19C141.102 58.19 142.29 57.704 143.262 56.732C144.288 55.706 144.828 54.491 144.882 53.087H145.125ZM145.125 8.213H144.882C144.828 6.809 144.288 5.621 143.262 4.649C142.29 3.623 141.102 3.11 139.698 3.11C139.698 3.11 139.509 3.11 139.131 3.11C138.807 3.11 138.645 3.11 138.645 3.11V2.3H145.125V8.213ZM149.904 8.213V2.3H156.384V3.11C156.33 3.11 156.141 3.11 155.817 3.11C155.493 3.11 155.331 3.11 155.331 3.11C153.927 3.11 152.712 3.623 151.686 4.649C150.714 5.621 150.201 6.809 150.147 8.213H149.904ZM202.301 27.815L225.305 54.869C226.439 55.949 227.573 56.759 228.707 57.299C229.895 57.839 231.326 58.136 233 58.19V59H229.517C228.977 59 228.194 58.973 227.168 58.919C226.196 58.811 225.116 58.622 223.928 58.352C222.794 58.028 221.633 57.569 220.445 56.975C219.311 56.327 218.285 55.463 217.367 54.383C217.367 54.383 216.881 53.816 215.909 52.682C214.991 51.548 213.776 50.09 212.264 48.308C210.806 46.526 209.24 44.636 207.566 42.638C205.946 40.586 204.38 38.669 202.868 36.887C201.41 35.105 200.195 33.647 199.223 32.513C198.305 31.379 197.846 30.812 197.846 30.812L202.301 27.815ZM225.71 2.867L201.491 30.812H197.846L220.121 2.867H225.71ZM231.299 2.3V3.029H230.975C229.193 3.029 227.519 3.38 225.953 4.082C224.441 4.784 223.145 5.756 222.065 6.998L216.962 6.836C217.664 5.918 217.772 5.054 217.286 4.244C216.854 3.434 216.098 3.029 215.018 3.029H214.208V2.3H230.975H231.299ZM195.254 2.3V59H189.989V2.3H195.254ZM190.232 53.087V59H183.752V58.19C183.752 58.19 183.914 58.19 184.238 58.19C184.616 58.19 184.805 58.19 184.805 58.19C186.209 58.19 187.397 57.704 188.369 56.732C189.395 55.706 189.935 54.491 189.989 53.087H190.232ZM190.232 8.213H189.989C189.935 6.809 189.395 5.621 188.369 4.649C187.397 3.623 186.209 3.11 184.805 3.11C184.805 3.11 184.616 3.11 184.238 3.11C183.914 3.11 183.752 3.11 183.752 3.11V2.3H190.232V8.213ZM195.011 53.087H195.254C195.308 54.491 195.821 55.706 196.793 56.732C197.819 57.704 199.034 58.19 200.438 58.19C200.438 58.19 200.6 58.19 200.924 58.19C201.248 58.19 201.437 58.19 201.491 58.19V59H195.011V53.087ZM195.011 8.213V2.3H201.491V3.11C201.437 3.11 201.248 3.11 200.924 3.11C200.6 3.11 200.438 3.11 200.438 3.11C199.034 3.11 197.819 3.623 196.793 4.649C195.821 5.621 195.308 6.809 195.254 8.213H195.011ZM249.299 2.3V59H244.034V2.3H249.299ZM271.169 56.489V59H249.056V56.489H271.169ZM267.686 29.84V32.27H249.056V29.84H267.686ZM271.169 2.3V4.811H249.056V2.3H271.169ZM276.11 45.878L271.412 59H257.966L260.882 56.489C263.744 56.489 266.066 56.057 267.848 55.193C269.684 54.275 271.169 53.006 272.303 51.386C273.437 49.766 274.436 47.93 275.3 45.878H276.11ZM267.686 32.108V37.454H266.876V36.239C266.876 35.159 266.498 34.241 265.742 33.485C264.986 32.675 264.068 32.27 262.988 32.27V32.108H267.686ZM267.686 24.656V30.002H262.988V29.84C264.068 29.786 264.986 29.381 265.742 28.625C266.498 27.815 266.876 26.87 266.876 25.79V24.656H267.686ZM271.169 4.568V11.048H270.359V9.59C270.359 8.294 269.9 7.187 268.982 6.269C268.064 5.297 266.93 4.784 265.58 4.73V4.568H271.169ZM271.169 0.841996V3.191L261.287 2.3C262.475 2.3 263.717 2.219 265.013 2.057C266.363 1.895 267.605 1.706 268.739 1.49C269.873 1.274 270.683 1.058 271.169 0.841996ZM244.277 53.087V59H237.797V58.19C237.797 58.19 237.959 58.19 238.283 58.19C238.661 58.19 238.85 58.19 238.85 58.19C240.254 58.19 241.442 57.704 242.414 56.732C243.44 55.706 243.98 54.491 244.034 53.087H244.277ZM244.277 8.213H244.034C244.034 6.809 243.521 5.621 242.495 4.649C241.469 3.623 240.254 3.11 238.85 3.11C238.85 3.11 238.688 3.11 238.364 3.11C238.04 3.11 237.878 3.11 237.878 3.11L237.797 2.3H244.277V8.213ZM295.014 2.3H306.435C308.865 2.3 311.052 2.651 312.996 3.353C314.994 4.055 316.668 5.081 318.018 6.431C319.368 7.727 320.394 9.32 321.096 11.21C321.852 13.046 322.23 15.152 322.23 17.528C322.23 20.12 321.609 22.604 320.367 24.98C319.179 27.356 317.532 29.3 315.426 30.812C313.374 32.27 311.052 32.999 308.46 32.999C309.378 33.377 310.377 34.16 311.457 35.348C312.537 36.482 313.482 37.589 314.292 38.669C314.292 38.669 314.643 39.209 315.345 40.289C316.101 41.315 317.019 42.584 318.099 44.096C319.233 45.608 320.367 47.093 321.501 48.551C322.635 50.009 323.607 51.17 324.417 52.034C325.497 53.222 326.577 54.275 327.657 55.193C328.737 56.111 329.898 56.84 331.14 57.38C332.436 57.92 333.867 58.19 335.433 58.19V59H330.978C328.494 59 326.334 58.622 324.498 57.866C322.716 57.11 321.204 56.192 319.962 55.112C318.72 53.978 317.667 52.898 316.803 51.872C316.641 51.656 316.182 51.035 315.426 50.009C314.724 48.983 313.86 47.768 312.834 46.364C311.862 44.906 310.89 43.475 309.918 42.071C308.946 40.667 308.109 39.479 307.407 38.507C306.705 37.481 306.3 36.887 306.192 36.725C305.166 35.375 304.032 34.133 302.79 32.999C301.548 31.865 300.198 31.298 298.74 31.298V30.488C298.74 30.488 299.145 30.515 299.955 30.569C300.819 30.569 301.845 30.542 303.033 30.488C304.437 30.434 305.976 30.218 307.65 29.84C309.324 29.462 310.89 28.679 312.348 27.491C313.806 26.303 314.913 24.494 315.669 22.064C315.831 21.47 315.966 20.741 316.074 19.877C316.182 18.959 316.209 18.068 316.155 17.204C316.101 13.532 315.156 10.616 313.32 8.456C311.538 6.242 309.135 5.054 306.111 4.892C304.599 4.784 303.033 4.757 301.413 4.811C299.847 4.811 298.524 4.811 297.444 4.811C296.364 4.811 295.824 4.811 295.824 4.811C295.824 4.757 295.743 4.541 295.581 4.163C295.473 3.731 295.338 3.326 295.176 2.948C295.068 2.516 295.014 2.3 295.014 2.3ZM296.067 2.3V59H290.802V2.3H296.067ZM291.045 53.087V59H284.565V58.19C284.565 58.19 284.727 58.19 285.051 58.19C285.429 58.19 285.618 58.19 285.618 58.19C287.022 58.19 288.21 57.704 289.182 56.732C290.208 55.706 290.748 54.491 290.802 53.087H291.045ZM291.045 8.213H290.802C290.748 6.809 290.208 5.621 289.182 4.649C288.21 3.623 287.022 3.11 285.618 3.11C285.618 3.11 285.429 3.11 285.051 3.11C284.727 3.11 284.565 3.11 284.565 3.11V2.3H291.045V8.213ZM295.824 53.087H296.067C296.067 54.491 296.58 55.706 297.606 56.732C298.632 57.704 299.847 58.19 301.251 58.19C301.251 58.19 301.413 58.19 301.737 58.19C302.061 58.19 302.223 58.19 302.223 58.19V59H295.824V53.087ZM354.082 1.166C354.946 1.166 355.864 1.22 356.836 1.328C357.862 1.436 358.834 1.598 359.752 1.814C360.724 1.976 361.588 2.165 362.344 2.381C363.154 2.543 363.775 2.732 364.207 2.948V11.939H363.478C363.478 9.347 362.587 7.322 360.805 5.864C359.023 4.352 356.863 3.596 354.325 3.596C351.355 3.596 348.952 4.541 347.116 6.431C345.28 8.267 344.362 10.427 344.362 12.911C344.362 13.937 344.578 15.152 345.01 16.556C345.496 17.906 346.36 19.175 347.602 20.363L363.559 35.105C365.179 36.617 366.259 38.237 366.799 39.965C367.339 41.693 367.609 43.367 367.609 44.987C367.609 49.469 366.232 53.114 363.478 55.922C360.778 58.73 357.106 60.134 352.462 60.134C351.166 60.134 349.627 59.999 347.845 59.729C346.117 59.459 344.416 59 342.742 58.352C341.122 57.65 339.772 56.759 338.692 55.679C338.53 54.815 338.449 53.735 338.449 52.439C338.449 51.143 338.557 49.793 338.773 48.389C338.989 46.931 339.286 45.608 339.664 44.42H340.393C340.123 47.174 340.474 49.577 341.446 51.629C342.418 53.681 343.822 55.247 345.658 56.327C347.548 57.353 349.681 57.812 352.057 57.704C355.027 57.542 357.565 56.516 359.671 54.626C361.831 52.682 362.911 50.09 362.911 46.85C362.911 45.284 362.641 43.88 362.101 42.638C361.561 41.342 360.778 40.235 359.752 39.317L344.2 24.899C342.58 23.387 341.446 21.74 340.798 19.958C340.15 18.122 339.826 16.421 339.826 14.855C339.826 12.587 340.366 10.4 341.446 8.294C342.526 6.188 344.119 4.487 346.225 3.191C348.385 1.841 351.004 1.166 354.082 1.166ZM364.207 1.976V3.677H358.051V1.976H364.207ZM26.0325 70.2857H30.1272C31.4507 70.2857 32.5881 70.5235 33.5394 70.9992C34.4907 71.4748 35.2248 72.1676 35.7418 73.0776C36.2589 73.9668 36.5174 75.0318 36.5174 76.2727C36.5174 77.2239 36.3312 78.0822 35.959 78.8473C35.5867 79.5918 35.0904 80.2226 34.47 80.7396C33.8496 81.2566 33.1465 81.6495 32.3606 81.9184C31.5748 82.1665 30.7579 82.2596 29.91 82.1976C29.0828 82.1355 28.2763 81.8977 27.4904 81.4841V81.1739C27.4904 81.1739 27.6662 81.2049 28.0178 81.2669C28.3693 81.3083 28.814 81.3186 29.3516 81.298C29.91 81.2566 30.4891 81.1429 31.0888 80.9567C31.7092 80.7499 32.2779 80.3984 32.7949 79.902C33.3326 79.4057 33.7359 78.7129 34.0047 77.8237C34.0667 77.5962 34.1184 77.317 34.1598 76.9861C34.2012 76.6346 34.2115 76.2933 34.1908 75.9625C34.1701 74.5355 33.7979 73.3878 33.0741 72.5192C32.3503 71.6506 31.3266 71.2163 30.0031 71.2163H26.3427C26.3427 71.2163 26.3116 71.1439 26.2496 70.9992C26.2082 70.8337 26.1565 70.6786 26.0945 70.5339C26.0531 70.3684 26.0325 70.2857 26.0325 70.2857ZM26.4357 70.2857V92H24.4194V70.2857H26.4357ZM24.5125 89.7355V92H22.0308V91.6898C22.0308 91.6898 22.0929 91.6898 22.2169 91.6898C22.3617 91.6898 22.4341 91.6898 22.4341 91.6898C22.9718 91.6898 23.4267 91.5037 23.799 91.1314C24.1919 90.7385 24.3987 90.2732 24.4194 89.7355H24.5125ZM24.5125 72.5502H24.4194C24.4194 72.0125 24.2229 71.5576 23.83 71.1853C23.4371 70.7924 22.9718 70.5959 22.4341 70.5959C22.4341 70.5959 22.3721 70.5959 22.248 70.5959C22.1239 70.5959 22.0618 70.5959 22.0618 70.5959L22.0308 70.2857H24.5125V72.5502ZM26.3427 89.7355H26.4357C26.4564 90.2732 26.6529 90.7385 27.0251 91.1314C27.418 91.5037 27.8833 91.6898 28.421 91.6898C28.421 91.6898 28.4831 91.6898 28.6072 91.6898C28.7519 91.6898 28.8243 91.6898 28.8243 91.6898V92H26.3427V89.7355ZM43.5709 73.3878H47.5725C48.5445 73.3878 49.413 73.5015 50.1782 73.729C50.9641 73.9565 51.6258 74.2873 52.1635 74.7216C52.7219 75.1559 53.1458 75.6833 53.4353 76.3037C53.7249 76.9241 53.8696 77.6272 53.8696 78.4131C53.8696 79.2816 53.6628 80.0882 53.2492 80.8327C52.8356 81.5771 52.2566 82.1872 51.5121 82.6629C50.7883 83.1385 49.9611 83.428 49.0304 83.5314C49.382 83.6762 49.7853 83.9967 50.2402 84.4931C50.7159 84.9894 51.1192 85.4754 51.45 85.951C51.45 85.951 51.5845 86.1371 51.8533 86.5094C52.1221 86.861 52.4634 87.3056 52.877 87.8433C53.3113 88.3603 53.7352 88.8566 54.1488 89.3322C54.5831 89.8079 54.976 90.2215 55.3276 90.5731C55.6998 90.9246 56.0928 91.2038 56.5064 91.4106C56.9407 91.5967 57.437 91.6898 57.9953 91.6898V92H57.0337C55.8963 92 54.9553 91.8552 54.2109 91.5657C53.487 91.2762 52.8977 90.9246 52.4427 90.511C51.9877 90.0767 51.5948 89.6631 51.2639 89.2702C51.1812 89.1668 50.9847 88.9083 50.6745 88.4947C50.385 88.0604 50.0645 87.5951 49.7129 87.0988C49.3613 86.6024 49.0408 86.1578 48.7513 85.7649C48.4617 85.3513 48.286 85.1031 48.2239 85.0204C47.8103 84.4827 47.3347 84.0071 46.797 83.5935C46.2593 83.1592 45.6906 82.942 45.0909 82.942V82.6318C45.0909 82.6318 45.2563 82.6422 45.5872 82.6629C45.9181 82.6629 46.342 82.6525 46.859 82.6318C47.4381 82.6112 48.0171 82.5698 48.5962 82.5078C49.1752 82.425 49.7129 82.1976 50.2092 81.8253C50.7262 81.4531 51.1295 80.8327 51.419 79.9641C51.5017 79.7366 51.5638 79.4678 51.6051 79.1576C51.6465 78.8473 51.6568 78.5268 51.6362 78.1959C51.6155 77.6169 51.5017 77.0999 51.2949 76.6449C51.1088 76.1899 50.8296 75.797 50.4574 75.4661C50.1058 75.1352 49.6819 74.8767 49.1856 74.6906C48.6892 74.5045 48.1309 74.4011 47.5104 74.3804C46.5385 74.339 45.6906 74.3287 44.9668 74.3494C44.243 74.3701 43.8811 74.3701 43.8811 74.3494C43.8811 74.3287 43.85 74.246 43.788 74.1012C43.7466 73.9358 43.6949 73.7807 43.6329 73.6359C43.5915 73.4705 43.5709 73.3878 43.5709 73.3878ZM43.9431 73.3878V92H41.9578V73.3878H43.9431ZM42.0509 90.0147L42.4231 92H39.7864V91.6898C39.7864 91.6898 39.8587 91.6898 40.0035 91.6898C40.1483 91.6898 40.2207 91.6898 40.2207 91.6898C40.717 91.6898 41.1306 91.5244 41.4615 91.1935C41.7924 90.8626 41.9681 90.4697 41.9888 90.0147H42.0509ZM42.0509 75.342H41.9888C41.9681 74.8664 41.7924 74.4735 41.4615 74.1633C41.1306 73.8531 40.717 73.698 40.2207 73.698C40.2207 73.698 40.1483 73.698 40.0035 73.698C39.8587 73.698 39.7864 73.698 39.7864 73.698V73.3878H42.4231L42.0509 75.342ZM43.85 90.0147H43.9431C43.9638 90.4697 44.1396 90.8626 44.4704 91.1935C44.8013 91.5244 45.2149 91.6898 45.7113 91.6898C45.7113 91.6898 45.7733 91.6898 45.8974 91.6898C46.0421 91.6898 46.1145 91.6898 46.1145 91.6898L46.1456 92H43.4778L43.85 90.0147ZM68.7531 72.9535C70.2007 72.9535 71.5553 73.1913 72.8168 73.6669C74.099 74.1219 75.2157 74.7837 76.167 75.6522C77.139 76.5208 77.8938 77.5548 78.4315 78.7543C78.9692 79.9331 79.238 81.2463 79.238 82.6939C79.238 84.1415 78.9692 85.465 78.4315 86.6645C77.8938 87.8433 77.139 88.8669 76.167 89.7355C75.2157 90.6041 74.099 91.2762 72.8168 91.7518C71.5553 92.2068 70.2007 92.4343 68.7531 92.4343C67.3055 92.4343 65.951 92.2068 64.6895 91.7518C63.428 91.2762 62.3112 90.6041 61.3392 89.7355C60.388 88.8669 59.6435 87.8433 59.1058 86.6645C58.5681 85.465 58.2993 84.1415 58.2993 82.6939C58.2993 81.2463 58.5681 79.9331 59.1058 78.7543C59.6435 77.5548 60.388 76.5208 61.3392 75.6522C62.3112 74.7837 63.428 74.1219 64.6895 73.6669C65.951 73.1913 67.3055 72.9535 68.7531 72.9535ZM68.7531 91.5037C70.2835 91.5037 71.669 91.1314 72.9099 90.3869C74.1507 89.6424 75.133 88.6084 75.8568 87.2849C76.5806 85.9614 76.9425 84.431 76.9425 82.6939C76.9425 80.9361 76.5806 79.4057 75.8568 78.1029C75.133 76.7793 74.1507 75.7453 72.9099 75.0008C71.669 74.2563 70.2835 73.8841 68.7531 73.8841C67.2435 73.8841 65.8682 74.2563 64.6274 75.0008C63.3866 75.7453 62.4043 76.7793 61.6805 78.1029C60.9567 79.4057 60.5948 80.9361 60.5948 82.6939C60.5948 84.431 60.9567 85.9614 61.6805 87.2849C62.4043 88.6084 63.3866 89.6424 64.6274 90.3869C65.8682 91.1314 67.2435 91.5037 68.7531 91.5037ZM86.1483 73.3878H89.5916C91.0392 73.3878 92.2904 73.6049 93.345 74.0392C94.3997 74.4528 95.2166 75.0629 95.7957 75.8694C96.3747 76.6552 96.6642 77.5962 96.6642 78.6922C96.6642 79.871 96.3954 80.8844 95.8577 81.7322C95.3407 82.5595 94.6479 83.2005 93.7793 83.6555C92.9108 84.0898 91.9491 84.3069 90.8944 84.3069C89.8397 84.2863 88.785 84.0174 87.7304 83.5004V83.1902C87.7304 83.1902 87.8958 83.2212 88.2267 83.2833C88.5782 83.3453 89.0229 83.3763 89.5606 83.3763C90.0982 83.3556 90.6669 83.2626 91.2667 83.0971C91.8664 82.911 92.4248 82.5801 92.9418 82.1045C93.4795 81.6288 93.9034 80.9464 94.2136 80.0571C94.2963 79.8297 94.348 79.5608 94.3687 79.2506C94.4101 78.9404 94.4308 78.6509 94.4308 78.382C94.4308 77.1205 93.9965 76.1279 93.1279 75.4041C92.2593 74.6803 91.0599 74.3184 89.5295 74.3184H86.4895C86.4895 74.3184 86.4585 74.246 86.3965 74.1012C86.3551 73.9358 86.3034 73.7807 86.2414 73.6359C86.1793 73.4705 86.1483 73.3878 86.1483 73.3878ZM86.5516 73.3878V92H84.5663V73.3878H86.5516ZM84.6283 90.0147L85.0316 92H82.3328V91.6898C82.3328 91.6898 82.4052 91.6898 82.5499 91.6898C82.6947 91.6898 82.7671 91.6898 82.7671 91.6898C83.2634 91.6898 83.677 91.5244 84.0079 91.1935C84.3595 90.8626 84.5456 90.4697 84.5663 90.0147H84.6283ZM84.6283 75.342H84.5663C84.5456 74.8664 84.3595 74.4735 84.0079 74.1633C83.677 73.8531 83.2634 73.698 82.7671 73.698C82.7671 73.698 82.6947 73.698 82.5499 73.698C82.4052 73.698 82.3328 73.698 82.3328 73.698V73.3878H85.0316L84.6283 75.342ZM86.4585 90.0147H86.5206C86.5412 90.4697 86.717 90.8626 87.0479 91.1935C87.3995 91.5244 87.8234 91.6898 88.3197 91.6898C88.3404 91.6898 88.4128 91.6898 88.5369 91.6898C88.6816 91.6898 88.754 91.6898 88.754 91.6898V92H86.0552L86.4585 90.0147ZM104.008 73.3878V92H102.023V73.3878H104.008ZM112.352 91.0384L112.29 92H103.946V91.0384H112.352ZM110.894 82.2286V83.1592H103.946V82.2286H110.894ZM112.321 73.3878V74.3494H103.946V73.3878H112.321ZM114.089 87.5641L112.383 92H107.668L108.723 91.0384C109.757 91.0384 110.584 90.8936 111.205 90.6041C111.846 90.2939 112.363 89.8803 112.756 89.3633C113.148 88.8256 113.49 88.2259 113.779 87.5641H114.089ZM110.894 83.0971V84.8653H110.553V84.462C110.553 84.1105 110.45 83.8106 110.243 83.5624C110.036 83.2936 109.716 83.1592 109.281 83.1592V83.0971H110.894ZM110.894 80.5225V82.2906H109.281V82.2286C109.716 82.2286 110.036 82.1045 110.243 81.8563C110.45 81.5875 110.553 81.2773 110.553 80.9257V80.5225H110.894ZM112.321 74.2563V76.3967H111.98V75.9314C111.98 75.4971 111.835 75.1249 111.546 74.8147C111.277 74.5045 110.905 74.3494 110.429 74.3494V74.2563H112.321ZM112.321 72.8914V73.698L108.785 73.3878C109.426 73.3878 110.108 73.3361 110.832 73.2327C111.556 73.1086 112.052 72.9948 112.321 72.8914ZM102.085 90.0147L102.488 92H99.789V91.6898C99.789 91.6898 99.8614 91.6898 100.006 91.6898C100.151 91.6898 100.223 91.6898 100.223 91.6898C100.74 91.6898 101.164 91.5244 101.495 91.1935C101.826 90.8626 102.002 90.4697 102.023 90.0147H102.085ZM102.085 75.342H102.023C102.002 74.8664 101.826 74.4735 101.495 74.1633C101.164 73.8531 100.74 73.698 100.223 73.698C100.223 73.698 100.151 73.698 100.006 73.698C99.8614 73.698 99.789 73.698 99.789 73.698V73.3878H102.488L102.085 75.342ZM120.515 73.3878H124.516C125.488 73.3878 126.357 73.5015 127.122 73.729C127.908 73.9565 128.57 74.2873 129.107 74.7216C129.666 75.1559 130.09 75.6833 130.379 76.3037C130.669 76.9241 130.814 77.6272 130.814 78.4131C130.814 79.2816 130.607 80.0882 130.193 80.8327C129.78 81.5771 129.201 82.1872 128.456 82.6629C127.732 83.1385 126.905 83.428 125.974 83.5314C126.326 83.6762 126.729 83.9967 127.184 84.4931C127.66 84.9894 128.063 85.4754 128.394 85.951C128.394 85.951 128.528 86.1371 128.797 86.5094C129.066 86.861 129.407 87.3056 129.821 87.8433C130.255 88.3603 130.679 88.8566 131.093 89.3322C131.527 89.8079 131.92 90.2215 132.272 90.5731C132.644 90.9246 133.037 91.2038 133.45 91.4106C133.885 91.5967 134.381 91.6898 134.939 91.6898V92H133.978C132.84 92 131.899 91.8552 131.155 91.5657C130.431 91.2762 129.842 90.9246 129.387 90.511C128.932 90.0767 128.539 89.6631 128.208 89.2702C128.125 89.1668 127.929 88.9083 127.618 88.4947C127.329 88.0604 127.008 87.5951 126.657 87.0988C126.305 86.6024 125.985 86.1578 125.695 85.7649C125.406 85.3513 125.23 85.1031 125.168 85.0204C124.754 84.4827 124.279 84.0071 123.741 83.5935C123.203 83.1592 122.635 82.942 122.035 82.942V82.6318C122.035 82.6318 122.2 82.6422 122.531 82.6629C122.862 82.6629 123.286 82.6525 123.803 82.6318C124.382 82.6112 124.961 82.5698 125.54 82.5078C126.119 82.425 126.657 82.1976 127.153 81.8253C127.67 81.4531 128.073 80.8327 128.363 79.9641C128.446 79.7366 128.508 79.4678 128.549 79.1576C128.59 78.8473 128.601 78.5268 128.58 78.1959C128.559 77.6169 128.446 77.0999 128.239 76.6449C128.053 76.1899 127.774 75.797 127.401 75.4661C127.05 75.1352 126.626 74.8767 126.129 74.6906C125.633 74.5045 125.075 74.4011 124.454 74.3804C123.482 74.339 122.635 74.3287 121.911 74.3494C121.187 74.3701 120.825 74.3701 120.825 74.3494C120.825 74.3287 120.794 74.246 120.732 74.1012C120.691 73.9358 120.639 73.7807 120.577 73.6359C120.535 73.4705 120.515 73.3878 120.515 73.3878ZM120.887 73.3878V92H118.902V73.3878H120.887ZM118.995 90.0147L119.367 92H116.73V91.6898C116.73 91.6898 116.803 91.6898 116.947 91.6898C117.092 91.6898 117.165 91.6898 117.165 91.6898C117.661 91.6898 118.075 91.5244 118.405 91.1935C118.736 90.8626 118.912 90.4697 118.933 90.0147H118.995ZM118.995 75.342H118.933C118.912 74.8664 118.736 74.4735 118.405 74.1633C118.075 73.8531 117.661 73.698 117.165 73.698C117.165 73.698 117.092 73.698 116.947 73.698C116.803 73.698 116.73 73.698 116.73 73.698V73.3878H119.367L118.995 75.342ZM120.794 90.0147H120.887C120.908 90.4697 121.084 90.8626 121.414 91.1935C121.745 91.5244 122.159 91.6898 122.655 91.6898C122.655 91.6898 122.717 91.6898 122.841 91.6898C122.986 91.6898 123.058 91.6898 123.058 91.6898L123.089 92H120.422L120.794 90.0147ZM143.984 73.4808V92H141.967V73.4808H143.984ZM151.491 73.3567V74.2873H134.46V73.3567H151.491ZM151.491 74.2253V76.3657H151.149V75.8694C151.149 75.4351 151.005 75.0732 150.715 74.7837C150.446 74.4735 150.074 74.308 149.598 74.2873V74.2253H151.491ZM151.491 72.8604V73.6669L148.016 73.3567C148.43 73.3567 148.864 73.3361 149.319 73.2947C149.795 73.2327 150.229 73.1603 150.622 73.0776C151.015 72.9948 151.304 72.9225 151.491 72.8604ZM142.029 90.0147V92H139.765V91.6898C139.786 91.6898 139.848 91.6898 139.951 91.6898C140.075 91.6898 140.137 91.6898 140.137 91.6898C140.633 91.6898 141.057 91.5244 141.409 91.1935C141.761 90.8626 141.947 90.4697 141.967 90.0147H142.029ZM143.891 90.0147H143.984C144.004 90.4697 144.19 90.8626 144.542 91.1935C144.894 91.5244 145.318 91.6898 145.814 91.6898C145.814 91.6898 145.866 91.6898 145.969 91.6898C146.093 91.6898 146.155 91.6898 146.155 91.6898V92H143.891V90.0147ZM136.353 74.2253V74.2873C135.877 74.308 135.494 74.4735 135.205 74.7837C134.936 75.0732 134.802 75.4351 134.802 75.8694V76.3657H134.46V74.2253H136.353ZM134.46 72.8604C134.647 72.9225 134.926 72.9948 135.298 73.0776C135.691 73.1603 136.125 73.2327 136.601 73.2947C137.076 73.3361 137.521 73.3567 137.935 73.3567L134.46 73.6669V72.8604ZM157.164 73.4188L162.903 83.6245L161.631 84.7102L154.465 73.4188H157.164ZM163.368 83.9967V92H161.352V83.9967H163.368ZM168.579 73.4188H170.534L163.151 84.6482L162.003 84.3069L168.579 73.4188ZM167.401 75.3731C167.628 74.9595 167.639 74.5769 167.432 74.2253C167.225 73.8737 166.894 73.698 166.439 73.698C166.439 73.698 166.377 73.698 166.253 73.698C166.129 73.698 166.067 73.698 166.067 73.698V73.3878H172.55V73.698H172.178C171.599 73.698 171.051 73.8634 170.534 74.1943C170.037 74.5045 169.645 74.8664 169.355 75.28L167.401 75.3731ZM158.25 75.342L155.613 75.249C155.282 74.7733 154.868 74.4011 154.372 74.1322C153.896 73.8427 153.359 73.698 152.759 73.698H152.387V73.3878H159.584V73.698C159.584 73.698 159.522 73.698 159.397 73.698C159.273 73.698 159.211 73.698 159.211 73.698C158.756 73.698 158.425 73.8841 158.219 74.2563C158.033 74.6079 158.043 74.9698 158.25 75.342ZM161.445 90.0147V92H159.18V91.6898C159.201 91.6898 159.263 91.6898 159.366 91.6898C159.49 91.6898 159.553 91.6898 159.553 91.6898C160.049 91.6898 160.462 91.5244 160.793 91.1935C161.145 90.8626 161.331 90.4697 161.352 90.0147H161.445ZM163.275 90.0147H163.368C163.389 90.4697 163.565 90.8626 163.895 91.1935C164.247 91.5244 164.671 91.6898 165.167 91.6898C165.167 91.6898 165.229 91.6898 165.353 91.6898C165.477 91.6898 165.539 91.6898 165.539 91.6898V92H163.275V90.0147ZM190.5 69.8514C191.203 69.8514 191.886 69.9445 192.547 70.1306C193.209 70.3167 193.819 70.5752 194.378 70.9061C194.936 71.2163 195.401 71.5989 195.773 72.0539L195.215 75.5592H194.905C194.905 74.5665 194.719 73.7186 194.347 73.0155C193.974 72.2917 193.457 71.7437 192.795 71.3714C192.154 70.9785 191.389 70.782 190.5 70.782C189.321 70.782 188.339 71.1956 187.553 72.0229C186.788 72.8501 186.405 73.8944 186.405 75.1559C186.405 76.4588 186.829 77.6686 187.677 78.7853C188.525 79.902 189.745 81.1739 191.338 82.6008C191.793 82.9937 192.289 83.4487 192.827 83.9657C193.385 84.462 194.016 85.0204 194.719 85.6408C195.443 86.2612 196.249 86.9437 197.138 87.6882C197.8 88.2259 198.472 88.7946 199.155 89.3943C199.858 89.994 200.571 90.511 201.295 90.9453C202.04 91.3796 202.805 91.6278 203.591 91.6898V92C203.198 92 202.629 91.9897 201.884 91.969C201.161 91.9483 200.354 91.8035 199.465 91.5347C198.576 91.2659 197.686 90.7695 196.797 90.0457C196.011 89.4046 195.287 88.8152 194.626 88.2776C193.985 87.7192 193.385 87.2125 192.827 86.7576C192.289 86.2819 191.782 85.8373 191.307 85.4237C190.831 84.9894 190.366 84.5654 189.911 84.1518C188.711 83.0351 187.687 82.0321 186.84 81.1429C186.012 80.2329 185.371 79.3127 184.916 78.382C184.482 77.4307 184.265 76.3554 184.265 75.1559C184.265 74.3907 184.41 73.6876 184.699 73.0465C184.989 72.4054 185.402 71.8471 185.94 71.3714C186.498 70.8958 187.16 70.5235 187.925 70.2547C188.69 69.9859 189.549 69.8514 190.5 69.8514ZM199.062 81.7943C199.289 82.9317 199.351 84.0174 199.248 85.0514C199.144 86.0854 198.886 87.0471 198.472 87.9363C198.079 88.8049 197.531 89.5701 196.828 90.2318C196.146 90.8936 195.329 91.4106 194.378 91.7829C193.426 92.1344 192.361 92.3102 191.182 92.3102C189.983 92.3102 188.877 92.2068 187.863 92C186.871 91.7932 185.992 91.4933 185.227 91.1004C184.461 90.6868 183.81 90.1905 183.272 89.6114C182.755 89.0117 182.362 88.3396 182.093 87.5951C181.825 86.8299 181.69 85.982 181.69 85.0514C181.69 84.4517 181.752 83.9037 181.876 83.4073C182.021 82.8903 182.218 82.4147 182.466 81.9804C182.714 81.5461 183.003 81.1635 183.334 80.8327C183.686 80.4811 184.068 80.1605 184.482 79.871C184.896 79.5815 185.34 79.3333 185.816 79.1265L186.25 79.809C185.837 80.1399 185.485 80.5121 185.196 80.9257C184.906 81.3186 184.668 81.7426 184.482 82.1976C184.296 82.6318 184.161 83.0971 184.079 83.5935C183.996 84.0691 183.955 84.5551 183.955 85.0514C183.955 85.982 184.11 86.8403 184.42 87.6261C184.751 88.3913 185.216 89.0531 185.816 89.6114C186.436 90.1698 187.191 90.6041 188.08 90.9143C188.99 91.2245 190.024 91.3796 191.182 91.3796C192.237 91.3796 193.168 91.1728 193.974 90.7592C194.801 90.3249 195.484 89.7665 196.022 89.0841C196.58 88.381 196.994 87.6054 197.262 86.7576C197.531 85.9097 197.645 85.0618 197.604 84.2139C197.562 83.3453 197.355 82.5388 196.983 81.7943C196.776 81.3807 196.508 81.0395 196.177 80.7706C195.867 80.5018 195.463 80.3673 194.967 80.3673H194.502V80.0571H200.675V80.3673H200.209C199.754 80.3673 199.424 80.5018 199.217 80.7706C199.031 81.0395 198.979 81.3807 199.062 81.7943ZM215.455 70.2857V92H213.439V70.2857H215.455ZM223.831 91.0384V92H215.362V91.0384H223.831ZM225.723 86.9747L223.924 92H218.775L219.891 91.0384C220.987 91.0384 221.877 90.8729 222.559 90.542C223.262 90.1905 223.831 89.7045 224.265 89.0841C224.699 88.4637 225.082 87.7605 225.413 86.9747H225.723ZM213.532 89.7355V92H211.05V91.6898C211.05 91.6898 211.113 91.6898 211.237 91.6898C211.381 91.6898 211.454 91.6898 211.454 91.6898C211.991 91.6898 212.446 91.5037 212.819 91.1314C213.212 90.7385 213.418 90.2732 213.439 89.7355H213.532ZM213.532 72.5502H213.439C213.418 72.0125 213.212 71.5576 212.819 71.1853C212.446 70.7924 211.991 70.5959 211.454 70.5959C211.454 70.5959 211.381 70.5959 211.237 70.5959C211.113 70.5959 211.05 70.5959 211.05 70.5959V70.2857H213.532V72.5502ZM215.362 72.5502V70.2857H217.844V70.5959C217.823 70.5959 217.751 70.5959 217.627 70.5959C217.503 70.5959 217.441 70.5959 217.441 70.5959C216.903 70.5959 216.438 70.7924 216.045 71.1853C215.673 71.5576 215.476 72.0125 215.455 72.5502H215.362ZM232.843 73.3878V92H230.858V73.3878H232.843ZM241.188 91.0384L241.126 92H232.781V91.0384H241.188ZM239.73 82.2286V83.1592H232.781V82.2286H239.73ZM241.157 73.3878V74.3494H232.781V73.3878H241.157ZM242.925 87.5641L241.219 92H236.503L237.558 91.0384C238.592 91.0384 239.419 90.8936 240.04 90.6041C240.681 90.2939 241.198 89.8803 241.591 89.3633C241.984 88.8256 242.325 88.2259 242.615 87.5641H242.925ZM239.73 83.0971V84.8653H239.388V84.462C239.388 84.1105 239.285 83.8106 239.078 83.5624C238.871 83.2936 238.551 83.1592 238.117 83.1592V83.0971H239.73ZM239.73 80.5225V82.2906H238.117V82.2286C238.551 82.2286 238.871 82.1045 239.078 81.8563C239.285 81.5875 239.388 81.2773 239.388 80.9257V80.5225H239.73ZM241.157 74.2563V76.3967H240.815V75.9314C240.815 75.4971 240.671 75.1249 240.381 74.8147C240.112 74.5045 239.74 74.3494 239.264 74.3494V74.2563H241.157ZM241.157 72.8914V73.698L237.62 73.3878C238.261 73.3878 238.944 73.3361 239.668 73.2327C240.391 73.1086 240.888 72.9948 241.157 72.8914ZM230.92 90.0147L231.323 92H228.624V91.6898C228.624 91.6898 228.697 91.6898 228.841 91.6898C228.986 91.6898 229.059 91.6898 229.059 91.6898C229.576 91.6898 230 91.5244 230.33 91.1935C230.661 90.8626 230.837 90.4697 230.858 90.0147H230.92ZM230.92 75.342H230.858C230.837 74.8664 230.661 74.4735 230.33 74.1633C230 73.8531 229.576 73.698 229.059 73.698C229.059 73.698 228.986 73.698 228.841 73.698C228.697 73.698 228.624 73.698 228.624 73.698V73.3878H231.323L230.92 75.342ZM254.151 73.4808V92H252.135V73.4808H254.151ZM261.658 73.3567V74.2873H244.628V73.3567H261.658ZM261.658 74.2253V76.3657H261.317V75.8694C261.317 75.4351 261.172 75.0732 260.882 74.7837C260.614 74.4735 260.241 74.308 259.766 74.2873V74.2253H261.658ZM261.658 72.8604V73.6669L258.184 73.3567C258.597 73.3567 259.031 73.3361 259.486 73.2947C259.962 73.2327 260.396 73.1603 260.789 73.0776C261.182 72.9948 261.472 72.9225 261.658 72.8604ZM252.197 90.0147V92H249.932V91.6898C249.953 91.6898 250.015 91.6898 250.118 91.6898C250.242 91.6898 250.304 91.6898 250.304 91.6898C250.801 91.6898 251.225 91.5244 251.576 91.1935C251.928 90.8626 252.114 90.4697 252.135 90.0147H252.197ZM254.058 90.0147H254.151C254.172 90.4697 254.358 90.8626 254.709 91.1935C255.061 91.5244 255.485 91.6898 255.981 91.6898C255.981 91.6898 256.033 91.6898 256.136 91.6898C256.26 91.6898 256.322 91.6898 256.322 91.6898V92H254.058V90.0147ZM246.52 74.2253V74.2873C246.044 74.308 245.662 74.4735 245.372 74.7837C245.103 75.0732 244.969 75.4351 244.969 75.8694V76.3657H244.628V74.2253H246.52ZM244.628 72.8604C244.814 72.9225 245.093 72.9948 245.465 73.0776C245.858 73.1603 246.292 73.2327 246.768 73.2947C247.244 73.3361 247.688 73.3567 248.102 73.3567L244.628 73.6669V72.8604ZM272.849 73.4808V92H270.833V73.4808H272.849ZM280.356 73.3567V74.2873H263.326V73.3567H280.356ZM280.356 74.2253V76.3657H280.015V75.8694C280.015 75.4351 279.87 75.0732 279.581 74.7837C279.312 74.4735 278.94 74.308 278.464 74.2873V74.2253H280.356ZM280.356 72.8604V73.6669L276.882 73.3567C277.295 73.3567 277.73 73.3361 278.185 73.2947C278.66 73.2327 279.095 73.1603 279.488 73.0776C279.881 72.9948 280.17 72.9225 280.356 72.8604ZM270.895 90.0147V92H268.63V91.6898C268.651 91.6898 268.713 91.6898 268.817 91.6898C268.941 91.6898 269.003 91.6898 269.003 91.6898C269.499 91.6898 269.923 91.5244 270.275 91.1935C270.626 90.8626 270.812 90.4697 270.833 90.0147H270.895ZM272.756 90.0147H272.849C272.87 90.4697 273.056 90.8626 273.408 91.1935C273.759 91.5244 274.183 91.6898 274.679 91.6898C274.679 91.6898 274.731 91.6898 274.835 91.6898C274.959 91.6898 275.021 91.6898 275.021 91.6898V92H272.756V90.0147ZM265.218 74.2253V74.2873C264.743 74.308 264.36 74.4735 264.07 74.7837C263.802 75.0732 263.667 75.4351 263.667 75.8694V76.3657H263.326V74.2253H265.218ZM263.326 72.8604C263.512 72.9225 263.791 72.9948 264.164 73.0776C264.556 73.1603 264.991 73.2327 265.466 73.2947C265.942 73.3361 266.387 73.3567 266.8 73.3567L263.326 73.6669V72.8604ZM287.309 73.3878V92H285.354V73.3878H287.309ZM285.447 90.0147V92H282.811V91.6898C282.811 91.6898 282.883 91.6898 283.028 91.6898C283.173 91.6898 283.245 91.6898 283.245 91.6898C283.824 91.6898 284.31 91.5244 284.703 91.1935C285.116 90.8626 285.334 90.4697 285.354 90.0147H285.447ZM287.216 90.0147H287.309C287.329 90.4697 287.536 90.8626 287.929 91.1935C288.343 91.5244 288.839 91.6898 289.418 91.6898C289.418 91.6898 289.48 91.6898 289.604 91.6898C289.749 91.6898 289.821 91.6898 289.821 91.6898L289.852 92H287.216V90.0147ZM287.216 75.3731V73.3878H289.852L289.821 73.698C289.821 73.698 289.749 73.698 289.604 73.698C289.48 73.698 289.418 73.698 289.418 73.698C288.839 73.698 288.343 73.8634 287.929 74.1943C287.536 74.5045 287.329 74.8974 287.309 75.3731H287.216ZM285.447 75.3731H285.354C285.334 74.8974 285.116 74.5045 284.703 74.1943C284.31 73.8634 283.824 73.698 283.245 73.698C283.224 73.698 283.141 73.698 282.997 73.698C282.873 73.698 282.811 73.698 282.811 73.698V73.3878H285.447V75.3731ZM295.186 72.9225L312.371 89.1151L312.681 92.4343L295.496 76.1486L295.186 72.9225ZM295.248 90.0767V92H292.921V91.6898C292.921 91.6898 293.004 91.6898 293.17 91.6898C293.356 91.6898 293.449 91.6898 293.449 91.6898C293.924 91.6898 294.328 91.5347 294.658 91.2245C294.989 90.9143 295.155 90.5317 295.155 90.0767H295.248ZM296.551 90.0767C296.551 90.5317 296.716 90.9143 297.047 91.2245C297.399 91.5347 297.802 91.6898 298.257 91.6898C298.257 91.6898 298.34 91.6898 298.505 91.6898C298.691 91.6898 298.784 91.6898 298.784 91.6898V92H296.458V90.0767H296.551ZM295.186 72.9225L296.52 74.6596L296.551 92H295.155V76.8C295.155 75.7453 295.103 74.8354 295 74.0702C294.917 73.305 294.876 72.9225 294.876 72.9225H295.186ZM312.681 73.3878V88.4637C312.681 89.1254 312.702 89.7665 312.743 90.3869C312.785 90.9867 312.826 91.483 312.867 91.8759C312.93 92.2482 312.961 92.4343 312.961 92.4343H312.681L311.316 90.7902V73.3878H312.681ZM312.588 75.311V73.3878H314.915V73.698C314.915 73.698 314.822 73.698 314.636 73.698C314.47 73.698 314.387 73.698 314.387 73.698C313.933 73.698 313.529 73.8531 313.178 74.1633C312.847 74.4735 312.681 74.8561 312.681 75.311H312.588ZM311.316 75.311C311.296 74.8561 311.12 74.4735 310.789 74.1633C310.458 73.8531 310.055 73.698 309.579 73.698C309.579 73.698 309.486 73.698 309.3 73.698C309.135 73.698 309.052 73.698 309.052 73.698V73.3878H311.378V75.311H311.316ZM327.894 72.9535C328.845 72.9535 329.735 73.0259 330.562 73.1706C331.41 73.2947 332.206 73.5015 332.95 73.791C333.716 74.0599 334.439 74.4114 335.122 74.8457L335.804 79.2196H335.525C335.236 77.9995 334.76 76.9965 334.098 76.2106C333.457 75.4248 332.62 74.8457 331.586 74.4735C330.552 74.0805 329.311 73.8841 327.863 73.8841C326.291 73.8841 324.906 74.246 323.706 74.9698C322.528 75.6729 321.607 76.6863 320.946 78.0098C320.284 79.3127 319.953 80.874 319.953 82.6939C319.953 84.4931 320.284 86.0544 320.946 87.378C321.607 88.7015 322.538 89.7252 323.737 90.449C324.937 91.1521 326.322 91.5037 327.894 91.5037C328.763 91.5037 329.59 91.4106 330.376 91.2245C331.162 91.0384 331.916 90.7488 332.64 90.3559C333.385 89.9423 334.078 89.4253 334.719 88.8049L334.75 84.6792C334.77 84.2863 334.646 83.9864 334.377 83.7796C334.129 83.5728 333.778 83.4694 333.323 83.4694H332.888V83.1592H338.565V83.4694H338.131C337.2 83.4694 336.735 83.883 336.735 84.7102V88.4327C336.259 89.0324 335.608 89.6424 334.781 90.2629C333.953 90.8833 332.961 91.4003 331.803 91.8139C330.665 92.2275 329.362 92.4343 327.894 92.4343C325.847 92.4136 324.058 92.0103 322.528 91.2245C321.018 90.4386 319.839 89.3219 318.991 87.8743C318.143 86.4267 317.719 84.6999 317.719 82.6939C317.719 80.6672 318.143 78.9301 318.991 77.4824C319.839 76.0348 321.028 74.9181 322.559 74.1322C324.089 73.3464 325.868 72.9535 327.894 72.9535ZM346.76 72.9535C347.339 72.9535 347.846 72.9742 348.28 73.0155C348.715 73.0569 349.087 73.1086 349.397 73.1706C349.728 73.212 350.007 73.274 350.235 73.3567C350.483 73.4188 350.7 73.4808 350.886 73.5429L350.917 76.6139H350.545C350.545 75.766 350.255 75.1042 349.676 74.6286C349.097 74.1322 348.198 73.8841 346.978 73.8841C345.944 73.8841 345.054 74.1736 344.31 74.7527C343.586 75.311 343.234 76.0038 343.255 76.831C343.255 77.0999 343.286 77.379 343.348 77.6686C343.431 77.9374 343.555 78.2063 343.72 78.4751C343.907 78.7439 344.155 79.0128 344.465 79.2816L350.731 84.1208C351.207 84.5137 351.558 85.0204 351.786 85.6408C352.013 86.2405 352.137 86.8403 352.158 87.44C352.179 88.3499 351.941 89.1875 351.445 89.9527C350.948 90.7178 350.276 91.3279 349.428 91.7829C348.601 92.2171 347.681 92.4343 346.667 92.4343C346.068 92.4343 345.416 92.3826 344.713 92.2792C344.031 92.1758 343.39 92.0207 342.79 91.8139C342.19 91.5864 341.694 91.3072 341.301 90.9763C341.239 90.6868 341.208 90.3249 341.208 89.8906C341.208 89.4356 341.239 88.96 341.301 88.4637C341.384 87.9673 341.487 87.5227 341.611 87.1298H341.983C341.901 88.0604 342.035 88.8566 342.387 89.5184C342.738 90.1801 343.255 90.6868 343.938 91.0384C344.62 91.3693 345.416 91.5244 346.326 91.5037C347.608 91.4623 348.611 91.1418 349.335 90.542C350.08 89.9216 350.452 89.1048 350.452 88.0914C350.452 87.5951 350.359 87.1505 350.173 86.7576C350.007 86.3439 349.728 85.9614 349.335 85.6098L343.131 80.8327C342.552 80.3363 342.159 79.7883 341.952 79.1886C341.745 78.5888 341.642 78.0201 341.642 77.4824C341.642 76.6346 341.87 75.8694 342.325 75.1869C342.779 74.5045 343.39 73.9668 344.155 73.5739C344.941 73.1603 345.809 72.9535 346.76 72.9535ZM350.855 73.2327L350.886 73.791H348.684V73.2327H350.855Z" fill="white"/>
</svg>
